<?xml version="1.0" standalone="no"?>
<!DOCTYPE svg PUBLIC "-//W3C//DTD SVG 20010904//EN"
 "http://www.w3.org/TR/2001/REC-SVG-20010904/DTD/svg10.dtd">
<svg version="1.0" xmlns="http://www.w3.org/2000/svg"
 width="1404.000000pt" height="1404.000000pt" viewBox="0 0 1404.000000 1404.000000"
 preserveAspectRatio="xMidYMid meet">
<metadata>
Created by potrace 1.11, written by Peter Selinger 2001-2013
</metadata>
<g transform="translate(0.000000,1404.000000) scale(0.100000,-0.100000)"
fill="#000000" stroke="none">
<path d="M7246 13695 c-10 -8 -35 -17 -57 -20 -21 -4 -41 -11 -45 -16 -3 -5
-12 -9 -20 -9 -8 0 -31 -7 -52 -17 -20 -9 -53 -18 -72 -20 -40 -5 -144 -36
-210 -63 -25 -11 -55 -22 -67 -25 -13 -4 -23 -11 -23 -16 0 -6 -4 -8 -9 -4
-13 7 -143 -35 -157 -52 -6 -7 -24 -13 -39 -13 -35 0 -105 -21 -105 -31 0 -5
-17 -11 -37 -15 -21 -4 -58 -20 -82 -36 -24 -16 -64 -33 -89 -37 -24 -5 -47
-13 -51 -19 -3 -5 -30 -18 -58 -27 -29 -10 -53 -21 -53 -25 0 -4 -11 -11 -25
-14 -14 -4 -25 -11 -25 -16 0 -6 -10 -10 -23 -10 -12 0 -29 -9 -37 -20 -8 -11
-26 -20 -40 -21 -41 -2 -165 -71 -168 -95 -2 -16 -9 -20 -32 -16 -28 4 -149
-47 -178 -75 -7 -7 -19 -13 -26 -13 -7 0 -28 -10 -47 -23 -19 -13 -61 -34 -94
-47 -33 -14 -66 -31 -74 -38 -26 -25 -112 -78 -186 -115 -22 -11 -59 -33 -83
-49 -24 -17 -50 -31 -57 -32 -8 -1 -23 -14 -35 -28 -11 -15 -33 -29 -49 -33
-16 -3 -37 -15 -46 -25 -23 -25 -99 -70 -119 -70 -9 0 -41 -25 -73 -55 -31
-30 -70 -60 -85 -66 -15 -6 -28 -15 -28 -20 0 -5 -6 -9 -13 -9 -8 0 -22 -9
-32 -20 -10 -11 -65 -52 -124 -91 -58 -39 -120 -84 -136 -100 -17 -16 -36 -29
-42 -29 -6 0 -13 -7 -17 -15 -3 -8 -11 -15 -18 -15 -7 0 -38 -23 -68 -51 -91
-83 -98 -89 -105 -89 -4 0 -17 -10 -29 -23 -11 -13 -42 -41 -68 -61 -26 -21
-45 -42 -42 -47 3 -5 -1 -9 -9 -9 -13 0 -88 -64 -193 -166 -18 -18 -36 -33
-41 -35 -5 -2 -19 -19 -32 -36 -12 -18 -29 -33 -36 -33 -8 0 -17 -9 -20 -20
-3 -11 -11 -20 -16 -20 -13 0 -129 -117 -129 -130 0 -5 -4 -10 -9 -10 -5 0
-23 -15 -40 -32 -16 -18 -55 -59 -85 -91 -31 -32 -56 -63 -56 -68 0 -5 -11
-14 -25 -19 -14 -5 -25 -14 -25 -20 0 -5 -20 -28 -45 -51 -25 -23 -45 -47 -45
-53 0 -6 -14 -19 -30 -28 -16 -9 -44 -37 -62 -62 -17 -25 -38 -46 -45 -46 -7
0 -13 -6 -13 -14 0 -8 -22 -38 -50 -67 -27 -30 -50 -60 -50 -66 0 -7 -6 -13
-12 -13 -13 0 -98 -103 -98 -118 0 -5 -10 -18 -23 -29 -12 -12 -33 -39 -47
-62 -13 -23 -29 -41 -36 -41 -6 0 -15 -12 -18 -26 -4 -14 -25 -44 -46 -66 -22
-22 -40 -43 -40 -48 0 -4 -16 -25 -35 -46 -19 -21 -35 -44 -35 -51 0 -8 -7
-16 -15 -19 -8 -4 -15 -12 -15 -20 0 -7 -11 -25 -25 -40 -14 -15 -25 -33 -25
-41 0 -8 -11 -26 -25 -41 -14 -15 -25 -35 -25 -44 0 -10 -4 -18 -10 -18 -5 0
-10 -6 -10 -14 0 -7 -18 -32 -40 -55 -25 -26 -37 -46 -34 -56 4 -10 2 -15 -7
-13 -7 2 -15 -6 -17 -16 -2 -11 -12 -27 -21 -35 -18 -16 -82 -119 -101 -162
-15 -33 -31 -58 -61 -99 -15 -19 -30 -46 -34 -60 -4 -14 -17 -38 -29 -55 -34
-48 -76 -127 -80 -150 -1 -6 -9 -21 -19 -35 -9 -13 -17 -30 -17 -36 0 -6 -7
-17 -14 -24 -15 -12 -56 -89 -56 -106 0 -5 -14 -28 -30 -52 -16 -24 -36 -64
-45 -90 -9 -26 -21 -55 -27 -66 -7 -13 -6 -21 2 -26 9 -6 7 -11 -7 -19 -12 -6
-24 -23 -27 -38 -4 -16 -19 -46 -33 -67 -27 -42 -92 -211 -101 -261 -2 -16
-10 -37 -17 -45 -8 -8 -17 -27 -20 -42 -4 -16 -11 -28 -16 -28 -5 0 -9 -4 -9
-10 0 -5 9 -10 19 -10 11 0 23 -4 26 -10 3 -6 71 -9 163 -9 86 1 299 -1 472
-4 227 -3 319 -2 329 7 11 8 13 8 7 -1 -5 -10 3 -12 32 -11 21 0 44 -2 50 -6
6 -3 15 1 20 11 9 15 12 15 26 3 13 -10 20 -10 28 -2 18 18 38 14 38 -8 0 -21
15 -27 25 -9 4 6 14 7 24 3 9 -4 60 -9 114 -10 78 -3 103 0 123 13 23 15 26
15 39 -3 12 -17 17 -18 46 -7 28 11 35 10 50 -3 11 -10 23 -13 31 -8 7 5 66 7
130 6 l117 -3 6 28 c3 16 17 51 31 79 13 28 24 54 24 58 0 3 11 29 25 58 27
55 31 83 15 93 -18 11 -11 25 11 22 17 -2 25 7 37 43 20 59 19 57 53 115 16
28 32 58 35 68 4 9 10 17 15 17 5 0 9 7 9 15 0 19 59 135 69 135 4 0 17 19 30
43 12 23 42 69 66 102 24 33 44 66 44 73 1 6 6 12 11 12 6 0 10 7 10 15 0 8 4
15 9 15 5 0 11 8 15 18 3 9 22 43 41 76 19 32 35 64 35 72 0 8 7 14 15 14 8 0
12 6 10 13 -3 6 5 17 17 22 13 6 24 18 26 27 2 9 32 47 68 85 35 37 64 72 64
76 0 4 13 20 28 35 16 15 44 47 63 72 18 25 44 53 56 63 13 10 23 25 23 33 0
8 4 14 9 14 5 0 13 9 16 20 3 11 12 20 18 20 7 0 23 16 37 35 14 19 30 35 36
35 7 0 19 11 28 25 9 14 64 73 121 131 58 58 112 116 121 129 9 14 20 25 24
25 11 0 53 35 107 88 24 23 50 42 58 42 9 0 19 8 23 18 8 20 121 126 172 162
19 13 51 37 71 54 19 17 46 38 60 46 13 8 37 29 54 46 40 42 153 126 188 142
16 7 31 21 34 32 3 11 12 20 19 20 8 0 22 8 32 18 10 9 30 24 46 32 16 8 47
32 69 53 47 44 77 61 125 72 17 3 32 12 32 18 1 19 50 49 71 44 15 -4 19 0 19
18 0 26 24 50 40 40 6 -4 20 2 30 13 20 21 195 142 206 142 3 0 26 13 50 30
24 16 44 25 44 20 0 -6 8 -10 18 -9 11 0 12 2 4 6 -8 3 1 13 24 25 20 10 45
28 57 38 11 11 23 17 28 15 4 -3 14 1 22 10 8 8 21 16 28 17 8 2 18 8 24 15 5
6 21 13 35 15 14 2 33 11 44 20 10 9 44 29 75 44 31 15 59 31 62 36 7 11 58
38 71 38 11 0 69 41 84 59 6 8 16 11 21 8 6 -4 27 4 47 18 20 14 50 25 65 25
17 0 31 7 35 16 4 10 13 13 26 9 11 -4 20 -2 20 4 0 6 7 11 15 11 8 0 15 5 15
10 0 6 5 10 10 10 6 0 20 9 32 20 12 11 36 23 55 26 18 3 30 11 27 16 -4 6 2
8 15 3 15 -4 21 -2 21 8 0 18 45 28 59 14 8 -8 15 -7 23 1 9 9 8 12 -7 12 -16
0 -14 3 8 15 22 11 33 12 52 3 14 -6 25 -15 25 -20 0 -4 9 -8 21 -8 26 0 120
-61 112 -73 -3 -6 -1 -7 6 -3 6 4 23 1 36 -8 13 -9 31 -16 40 -16 8 0 15 -3
15 -8 0 -4 10 -12 23 -17 12 -6 21 -16 20 -22 -1 -6 15 -14 37 -18 22 -4 40
-11 40 -16 0 -6 4 -8 9 -5 4 3 16 -3 26 -14 10 -11 24 -20 32 -20 7 0 13 -4
13 -10 0 -5 7 -10 15 -10 8 0 15 -5 15 -11 0 -5 4 -8 10 -4 5 3 18 -3 30 -15
11 -11 27 -20 36 -20 8 0 12 -4 9 -10 -5 -9 6 -14 26 -12 3 1 20 -12 36 -27
17 -16 38 -31 47 -34 9 -4 16 -11 16 -17 0 -5 7 -10 16 -10 10 0 14 -6 11 -14
-4 -10 -1 -13 7 -10 13 5 85 -32 98 -51 4 -5 8 -6 8 -1 0 6 9 0 20 -12 11 -12
32 -25 45 -28 18 -4 25 -13 25 -30 0 -21 5 -24 38 -24 26 -1 47 -9 72 -30 19
-17 40 -30 47 -30 7 0 20 -11 28 -24 9 -13 27 -27 40 -30 13 -3 36 -22 51 -41
14 -19 35 -35 46 -35 10 0 21 -6 24 -14 3 -8 16 -17 29 -20 12 -3 37 -22 54
-41 17 -19 34 -35 39 -35 19 0 62 -42 62 -61 0 -16 5 -18 27 -13 20 5 25 4 21
-7 -4 -10 3 -14 20 -16 14 0 31 -7 36 -15 15 -18 104 -90 141 -113 17 -10 37
-27 45 -38 26 -34 89 -96 110 -107 10 -6 17 -16 14 -24 -3 -8 4 -16 18 -19 13
-4 39 -21 59 -39 20 -18 44 -38 55 -44 10 -6 23 -20 29 -32 5 -12 15 -20 22
-18 7 3 17 -10 25 -29 8 -24 15 -31 20 -22 6 9 13 5 27 -13 11 -13 17 -28 15
-32 -3 -4 -1 -8 4 -8 5 0 12 -9 15 -21 4 -16 11 -19 26 -14 16 5 21 2 21 -10
0 -11 5 -15 14 -12 20 8 38 -16 29 -38 -3 -10 -2 -16 3 -13 18 12 67 -39 68
-71 1 -28 2 -29 14 -14 11 16 16 14 51 -27 21 -25 36 -49 33 -54 -3 -5 0 -6 5
-3 11 7 53 -25 53 -40 0 -14 39 -47 46 -40 9 9 44 -11 44 -26 0 -7 16 -23 35
-37 19 -14 35 -30 35 -35 0 -6 19 -31 43 -55 24 -25 54 -61 68 -80 13 -19 39
-49 56 -67 18 -17 33 -36 33 -41 0 -6 6 -17 13 -24 7 -7 33 -40 57 -73 25 -33
48 -64 53 -70 4 -5 21 -28 37 -50 16 -22 34 -45 40 -52 5 -7 10 -16 10 -22 0
-5 3 -11 8 -13 4 -1 20 -21 35 -43 45 -66 76 -109 84 -120 5 -6 19 -30 32 -55
14 -25 35 -59 48 -76 13 -17 23 -38 23 -47 0 -9 5 -19 10 -22 6 -4 20 -27 32
-52 12 -24 27 -47 35 -50 7 -3 13 -9 13 -15 0 -9 43 -106 61 -138 4 -8 31 -59
58 -112 27 -53 54 -105 60 -115 5 -10 17 -40 26 -68 9 -27 19 -57 22 -65 3 -8
8 -23 9 -32 2 -9 13 -34 23 -55 11 -21 27 -64 36 -95 8 -32 22 -84 30 -115 35
-130 39 -133 261 -134 87 0 227 -5 309 -9 83 -5 259 -11 393 -14 213 -5 243
-4 249 9 5 14 8 14 22 2 9 -8 30 -18 48 -22 48 -10 485 -14 510 -4 20 8 23 15
22 71 -1 35 -8 78 -16 96 -8 18 -15 42 -16 52 -1 11 -4 20 -8 20 -4 0 -10 17
-14 38 -3 21 -17 51 -31 67 -14 17 -24 41 -24 59 0 17 -7 44 -15 60 -9 16 -14
35 -11 42 3 7 -1 14 -8 17 -7 3 -18 25 -25 48 -7 24 -24 63 -37 87 -26 47 -31
77 -11 67 6 -4 5 -1 -3 7 -13 11 -43 68 -45 88 -1 3 -9 22 -18 44 -9 21 -17
45 -17 52 0 8 -7 14 -15 14 -8 0 -15 8 -15 18 0 9 -7 26 -15 36 -8 11 -15 27
-15 37 0 9 -6 22 -14 28 -7 6 -13 23 -13 38 0 15 -8 32 -17 38 -9 7 -16 16
-16 21 0 15 -69 152 -80 159 -5 3 -15 27 -21 51 -7 25 -18 48 -25 51 -8 3 -14
15 -14 27 0 12 -13 33 -30 48 -16 14 -30 35 -30 45 0 11 -13 40 -30 66 -16 26
-30 50 -30 53 0 3 -9 17 -20 31 -11 14 -20 34 -20 44 0 11 -9 28 -20 39 -11
11 -23 34 -26 50 -4 16 -12 31 -19 34 -19 7 -145 176 -145 194 0 8 -11 27 -25
44 -14 16 -25 40 -25 53 0 12 -6 25 -14 28 -8 3 -22 24 -32 46 -10 23 -24 41
-31 41 -7 0 -20 14 -28 31 -9 16 -23 38 -31 47 -37 40 -144 188 -144 198 0 7
-7 14 -15 17 -8 4 -23 24 -34 45 -11 22 -27 42 -36 45 -8 4 -15 13 -15 21 0 8
-16 30 -35 49 -19 19 -49 57 -67 85 -19 27 -54 72 -78 100 -112 127 -146 167
-166 194 -12 16 -32 39 -46 51 -13 12 -44 47 -69 76 -24 30 -80 92 -124 137
-121 123 -155 161 -155 171 0 5 -15 17 -34 26 -19 9 -37 25 -41 36 -3 12 -10
21 -15 21 -11 0 -160 150 -160 161 0 5 -5 9 -12 9 -13 0 -108 76 -121 97 -4 7
-15 13 -22 13 -8 0 -15 6 -15 13 0 6 -21 26 -45 42 -25 17 -45 35 -45 41 0 5
-15 21 -32 34 -30 22 -57 45 -127 108 -13 13 -42 32 -62 44 -20 11 -43 31 -50
44 -7 13 -18 24 -25 24 -7 0 -14 3 -16 8 -1 4 -26 22 -55 40 -28 18 -54 39
-57 47 -3 8 -12 15 -19 15 -8 0 -22 9 -32 20 -11 12 -46 39 -79 62 -34 22 -68
47 -76 54 -32 29 -111 84 -120 84 -6 0 -10 4 -10 8 0 8 -68 56 -204 144 -22
15 -57 35 -76 45 -19 10 -70 41 -113 70 -43 29 -83 53 -88 53 -5 0 -9 5 -9 10
0 6 8 10 18 10 15 1 15 2 -2 12 -14 8 -24 8 -37 0 -14 -9 -27 -5 -66 21 -70
46 -83 54 -138 83 -27 14 -57 32 -66 40 -8 8 -21 14 -27 14 -7 0 -29 10 -50
23 -20 13 -63 36 -94 50 -31 15 -60 32 -63 37 -3 6 -17 10 -31 10 -13 0 -24 3
-24 8 0 7 -15 15 -93 47 -20 8 -47 25 -58 36 -11 11 -57 36 -102 55 -45 20
-86 40 -91 45 -6 5 -16 9 -24 9 -8 0 -69 26 -136 58 -66 32 -155 71 -196 86
-41 15 -97 38 -125 51 -27 12 -61 26 -75 30 -14 4 -43 15 -65 25 -55 24 -117
31 -139 15z"/>
<path d="M7220 11875 c-14 -8 -40 -14 -57 -15 -18 0 -33 -4 -33 -10 0 -5 -8
-10 -17 -10 -20 -1 -73 -44 -73 -60 0 -5 -4 -10 -10 -10 -26 0 -42 -147 -45
-430 -3 -251 -2 -230 -17 -230 -6 0 -19 -6 -27 -13 -20 -17 -100 -47 -126 -47
-23 -1 -65 -33 -65 -49 0 -13 -17 -15 -24 -2 -11 17 -46 -1 -46 -23 -1 -24
-26 -58 -58 -75 -12 -6 -22 -16 -22 -22 0 -6 -11 -25 -25 -43 -14 -18 -25 -38
-25 -44 0 -7 -4 -12 -9 -12 -5 0 -13 -10 -17 -22 -3 -13 -12 -30 -19 -38 -7
-8 -15 -28 -19 -45 -4 -16 -19 -52 -33 -80 -24 -46 -37 -85 -48 -140 -2 -11
-11 -44 -19 -74 -8 -30 -18 -97 -22 -150 -6 -80 -12 -105 -36 -151 -17 -30
-36 -60 -44 -66 -8 -6 -14 -16 -14 -23 0 -6 -4 -11 -9 -11 -5 0 -14 -13 -21
-30 -7 -16 -25 -40 -41 -52 -16 -13 -29 -28 -29 -33 0 -6 -13 -26 -30 -45 -16
-19 -29 -40 -30 -47 0 -6 -3 -13 -7 -15 -5 -1 -21 -22 -37 -45 -16 -24 -33
-43 -37 -43 -5 0 -9 -4 -9 -9 0 -19 -65 -117 -102 -154 -21 -21 -38 -41 -38
-44 0 -4 -18 -30 -40 -59 -22 -29 -40 -58 -40 -64 0 -5 -4 -10 -9 -10 -7 0
-68 -88 -80 -115 -2 -5 -10 -14 -16 -20 -7 -5 -40 -47 -75 -93 -34 -46 -68
-86 -75 -89 -8 -2 -12 -10 -9 -17 3 -7 -6 -23 -19 -37 -14 -13 -35 -43 -47
-66 -12 -24 -26 -43 -31 -43 -5 0 -9 -6 -9 -14 0 -7 -17 -33 -38 -57 -57 -66
-97 -121 -110 -152 -6 -15 -19 -30 -27 -33 -8 -4 -15 -11 -15 -18 0 -6 -16
-28 -34 -50 -19 -21 -40 -50 -47 -65 -8 -14 -20 -30 -26 -34 -7 -4 -13 -14
-13 -21 0 -7 -10 -24 -22 -38 -46 -50 -68 -78 -68 -86 0 -4 -29 -43 -65 -87
-35 -44 -65 -83 -65 -87 0 -12 -83 -129 -113 -162 -15 -16 -27 -35 -27 -43 0
-15 -7 -24 -58 -81 -19 -20 -41 -54 -50 -74 -9 -21 -20 -38 -25 -38 -14 0 -49
-38 -44 -47 3 -5 -8 -19 -24 -32 -16 -13 -29 -30 -29 -38 0 -8 -19 -38 -43
-66 -24 -29 -72 -92 -107 -142 -35 -49 -71 -97 -80 -105 -10 -8 -34 -43 -55
-78 -21 -35 -50 -75 -65 -90 -14 -15 -48 -61 -75 -102 -28 -41 -53 -76 -57
-78 -4 -2 -15 -19 -24 -38 -9 -19 -20 -34 -25 -34 -5 0 -20 -17 -34 -37 -13
-21 -38 -57 -55 -81 -16 -23 -30 -46 -30 -51 0 -4 -13 -20 -30 -34 -16 -15
-30 -32 -30 -37 0 -10 -29 -47 -70 -89 -14 -15 -33 -42 -43 -61 -10 -19 -26
-42 -35 -50 -10 -8 -30 -35 -44 -60 -15 -25 -45 -64 -67 -88 -22 -23 -43 -51
-46 -62 -4 -11 -11 -20 -16 -20 -5 0 -9 -5 -9 -11 0 -9 -44 -74 -60 -89 -9 -8
-90 -132 -90 -137 0 -3 -11 -14 -25 -25 -14 -11 -23 -24 -19 -29 3 -5 -6 -13
-19 -18 -19 -7 -23 -15 -20 -33 4 -19 -1 -27 -21 -36 -15 -6 -32 -24 -39 -39
-6 -16 -23 -38 -37 -51 -17 -16 -21 -25 -12 -29 6 -2 12 -12 12 -21 1 -20 60
45 60 65 0 7 3 12 8 11 4 -2 31 22 60 52 29 30 69 72 89 92 27 28 34 43 31 63
-4 18 -2 23 7 15 8 -6 29 9 71 54 32 34 93 98 134 142 46 49 74 86 72 97 -2
11 3 17 14 17 20 0 90 64 110 103 8 15 21 27 28 27 8 0 18 13 24 28 8 25 37
64 72 97 6 6 32 33 58 60 26 28 68 71 95 97 26 26 68 73 92 105 24 32 57 72
73 88 15 17 48 55 73 85 24 30 55 66 69 80 58 59 81 93 75 111 -7 21 10 27 18
7 3 -8 18 3 40 27 23 27 31 42 23 47 -6 5 -7 8 -1 9 24 4 31 6 48 14 9 4 17
13 17 20 0 7 16 25 35 39 37 29 45 46 20 46 -8 0 -15 5 -15 10 0 6 11 10 25
10 25 0 95 58 95 79 0 5 25 35 55 66 36 37 55 64 55 80 0 26 15 34 23 13 3 -8
9 -2 15 14 6 14 25 34 41 44 17 10 31 23 31 28 0 5 23 32 50 60 73 73 80 81
80 94 0 7 6 12 14 12 8 0 22 10 30 22 8 11 35 42 58 67 24 25 62 69 83 96 22
28 70 80 107 117 36 37 69 76 73 87 3 12 10 21 14 21 4 0 5 16 3 35 -3 22 0
35 8 35 7 0 9 -8 5 -20 -3 -11 -2 -20 3 -20 12 0 42 34 42 48 0 7 4 12 8 12
11 0 100 88 177 175 33 38 75 82 93 100 17 18 32 37 32 44 0 6 3 11 8 11 11 0
53 40 85 80 57 72 93 114 140 164 26 27 47 54 47 59 0 13 128 137 140 137 6 0
10 6 10 14 0 8 11 23 25 34 14 11 25 23 25 27 0 9 81 101 169 194 34 35 61 70
61 77 0 8 4 14 9 14 5 0 22 20 38 45 15 24 35 47 44 50 9 3 22 16 29 30 7 13
16 23 19 21 3 -2 17 11 31 30 14 18 33 36 43 39 9 4 17 10 17 15 0 4 25 34 55
66 30 33 55 62 55 67 0 4 17 24 39 45 21 20 47 52 58 69 19 31 69 72 105 86
10 3 20 17 23 29 4 13 20 30 37 37 34 15 34 15 162 -133 21 -25 41 -45 45 -44
27 3 33 -4 28 -32 -5 -23 -3 -28 8 -23 10 3 15 -1 15 -15 0 -11 15 -33 33 -48
17 -15 32 -30 32 -33 0 -3 8 -15 18 -26 11 -11 33 -43 50 -71 18 -27 50 -68
72 -90 59 -58 95 -104 98 -125 2 -9 28 -41 59 -71 31 -29 59 -63 63 -75 3 -13
11 -23 16 -23 5 0 9 -6 7 -14 -3 -12 74 -96 88 -96 11 0 30 -26 43 -57 7 -18
19 -33 26 -33 24 0 65 -45 65 -73 0 -17 5 -27 15 -27 8 0 15 -7 15 -15 0 -8 4
-15 9 -15 5 0 12 -14 16 -31 4 -19 18 -37 36 -48 16 -9 38 -37 51 -63 13 -27
26 -48 31 -48 13 0 34 -24 30 -36 -2 -5 10 -20 27 -32 16 -13 30 -29 30 -36 0
-8 9 -16 21 -19 16 -4 19 -11 14 -26 -5 -15 -2 -21 10 -21 18 0 85 -48 85 -61
0 -9 47 -86 68 -109 7 -8 31 -40 55 -70 23 -30 45 -57 50 -58 4 -2 5 -7 2 -12
-3 -5 4 -11 14 -15 11 -3 23 -15 26 -26 4 -10 10 -17 15 -14 4 3 10 -5 13 -16
3 -12 10 -18 16 -14 7 3 11 -2 11 -14 0 -12 4 -21 9 -21 5 0 12 -11 15 -25 4
-14 10 -23 15 -20 5 2 16 -6 24 -18 8 -13 31 -40 51 -60 20 -21 36 -46 36 -57
0 -13 5 -18 15 -14 9 4 18 -1 23 -12 17 -40 48 -84 59 -84 6 0 17 -13 25 -30
7 -16 16 -30 20 -30 5 0 8 -7 8 -15 0 -8 7 -15 15 -15 9 0 18 -12 21 -30 4
-16 10 -28 14 -25 4 3 13 -2 20 -10 7 -8 9 -15 4 -15 -4 0 9 -16 29 -35 20
-19 37 -38 37 -42 0 -5 16 -25 35 -45 19 -20 35 -44 35 -52 0 -9 7 -16 15 -16
9 0 15 -6 13 -12 -1 -7 18 -33 42 -58 69 -70 104 -112 121 -147 8 -18 31 -43
50 -56 18 -12 35 -32 37 -42 2 -11 9 -25 16 -30 7 -6 16 -20 20 -33 4 -12 12
-20 17 -16 6 3 13 -3 16 -15 3 -12 9 -21 13 -21 4 0 5 -11 3 -24 -4 -19 0 -25
21 -30 15 -4 32 -17 38 -30 6 -14 19 -27 30 -29 11 -3 22 -15 25 -26 3 -12 12
-21 19 -21 8 0 19 -12 25 -27 5 -15 19 -33 30 -41 10 -7 17 -18 14 -23 -4 -5
-1 -9 4 -9 6 0 11 -9 11 -20 0 -11 7 -20 15 -20 9 0 19 -8 22 -17 4 -10 15
-24 25 -31 10 -7 18 -21 18 -31 0 -11 7 -21 15 -25 8 -3 15 -17 15 -31 0 -18
7 -28 24 -35 14 -5 32 -25 41 -44 9 -19 25 -38 36 -41 10 -4 19 -12 19 -20 0
-12 19 -25 46 -30 13 -3 54 -42 54 -50 0 -17 68 -94 83 -95 9 0 17 -7 17 -14
0 -17 52 -97 75 -116 8 -7 15 -18 15 -24 0 -6 8 -19 18 -28 9 -9 28 -31 42
-48 14 -18 41 -51 60 -74 20 -22 56 -68 80 -101 24 -33 61 -77 82 -98 21 -21
38 -40 38 -44 0 -16 114 -152 123 -146 6 3 7 1 3 -5 -4 -7 -3 -12 1 -12 5 0
17 -16 27 -35 11 -19 22 -35 26 -35 4 0 25 -28 48 -62 22 -35 51 -75 65 -89
13 -15 27 -34 30 -44 7 -18 27 -12 27 9 0 7 -13 34 -30 59 -16 26 -43 68 -60
95 -16 26 -33 52 -37 57 -17 21 -63 95 -63 100 0 8 -71 116 -91 140 -10 11
-54 81 -99 155 -45 74 -96 152 -113 173 -16 21 -38 53 -47 70 -9 18 -23 43
-31 57 -16 29 -60 92 -69 100 -3 3 -18 25 -32 50 -14 25 -41 68 -59 96 -49 74
-73 118 -70 128 1 4 -14 28 -34 51 -19 24 -35 51 -35 59 0 18 -18 52 -37 74
-7 7 -13 20 -13 28 0 8 -4 14 -10 14 -5 0 -10 9 -10 21 0 11 -4 18 -9 15 -4
-3 -19 22 -32 55 -13 34 -30 64 -36 66 -7 3 -13 10 -13 17 0 6 -11 20 -25 30
-14 10 -25 25 -25 33 0 8 -4 12 -9 8 -5 -3 -12 4 -16 15 -3 11 -11 20 -16 20
-5 0 -9 9 -9 20 0 11 -7 20 -15 20 -8 0 -15 9 -15 20 0 11 -4 20 -8 20 -5 0
-17 17 -28 38 -10 20 -29 47 -41 59 -13 12 -23 30 -23 40 0 10 -16 35 -35 55
-20 20 -34 43 -33 50 2 7 -2 12 -8 11 -6 -1 -23 23 -39 52 -15 30 -35 63 -45
72 -22 25 -33 54 -31 82 2 20 -1 23 -18 18 -16 -4 -21 0 -21 15 0 10 -4 17 -9
14 -10 -6 -41 36 -41 56 0 7 -12 24 -25 37 -14 13 -25 34 -25 48 0 13 -4 21
-10 18 -5 -3 -15 5 -22 19 -6 14 -15 26 -20 26 -4 0 -8 6 -8 14 0 8 -4 16 -9
18 -4 2 -23 30 -41 63 -42 78 -80 136 -104 158 -11 10 -19 30 -19 47 0 17 -5
29 -11 27 -13 -4 -36 17 -36 33 0 6 -11 23 -25 38 -14 15 -25 34 -25 44 0 9
-6 21 -13 25 -7 4 -24 26 -37 48 -13 22 -36 56 -52 76 -15 20 -28 46 -28 57 0
25 -38 67 -60 67 -10 0 -16 12 -18 37 -2 24 -10 42 -22 48 -11 6 -16 17 -13
28 3 12 -4 22 -21 32 -17 8 -30 27 -36 52 -7 23 -17 38 -26 38 -9 0 -18 9 -21
20 -3 11 -9 20 -14 20 -5 0 -9 15 -9 34 0 35 -12 50 -39 51 -18 0 -69 82 -70
112 -1 12 -8 26 -18 31 -9 5 -17 20 -18 33 -1 13 -8 23 -14 21 -6 -1 -15 9
-20 22 -5 13 -16 26 -25 29 -9 4 -13 13 -10 21 4 10 -7 28 -28 48 -19 18 -40
52 -48 76 -7 24 -21 47 -31 52 -9 5 -25 30 -35 55 -15 34 -23 43 -36 39 -15
-4 -18 1 -18 25 0 19 -11 41 -30 63 -16 18 -30 40 -30 50 0 10 -7 18 -15 18
-8 0 -15 7 -15 15 0 9 -9 25 -20 37 -11 12 -20 28 -20 35 0 8 -4 12 -9 8 -9
-5 -71 77 -71 96 0 5 -4 9 -8 9 -5 0 -15 12 -22 28 -8 15 -20 34 -26 42 -12
15 -26 93 -28 165 -1 22 -5 47 -8 55 -11 25 -31 163 -29 202 1 23 -10 62 -27
100 -16 35 -37 85 -47 111 -9 27 -25 56 -34 65 -10 9 -27 38 -39 65 -26 56
-196 231 -217 223 -7 -2 -19 1 -25 9 -6 7 -20 11 -30 8 -11 -3 -20 0 -20 6 0
6 -6 11 -12 11 -7 1 -30 16 -51 34 l-38 34 0 113 c-1 63 2 157 5 209 12 185
10 237 -13 285 -12 25 -25 45 -30 45 -6 0 -18 13 -27 29 -10 17 -28 32 -41 36
-13 3 -48 17 -78 30 -62 29 -54 28 -85 10z m-2830 -4789 c0 -3 -4 -8 -10 -11
-5 -3 -10 -1 -10 4 0 6 5 11 10 11 6 0 10 -2 10 -4z"/>
<path d="M6235 8933 c-86 -45 -184 -190 -170 -253 4 -18 2 -36 -5 -44 -15 -19
-20 -185 -8 -276 5 -41 11 -86 13 -100 9 -66 28 -150 35 -150 4 0 10 -27 14
-61 3 -33 12 -75 20 -92 21 -46 28 -87 16 -87 -5 0 -9 -5 -7 -11 1 -7 -26 -17
-68 -24 -127 -22 -185 -36 -185 -44 0 -5 7 -14 15 -21 17 -14 11 -30 -11 -30
-9 0 -12 5 -8 13 6 10 4 10 -7 0 -20 -20 -31 -15 -18 8 10 20 9 21 -23 14 -18
-4 -51 -13 -73 -20 -22 -7 -60 -18 -85 -26 -50 -15 -226 -103 -251 -125 -8 -8
-20 -14 -25 -14 -5 0 -15 -9 -22 -20 -7 -11 -19 -20 -27 -20 -14 0 -19 -11
-16 -37 1 -7 -8 -13 -20 -13 -17 0 -20 -5 -17 -24 3 -17 1 -23 -8 -19 -15 6
-44 -46 -44 -80 0 -12 -5 -28 -11 -34 -35 -35 89 -265 131 -244 29 15 45 7 45
-23 1 -37 27 -56 55 -38 29 18 32 15 26 -16 -6 -23 -2 -30 24 -45 16 -10 35
-15 40 -12 6 3 10 2 10 -3 0 -5 25 -22 55 -37 45 -22 59 -24 70 -15 12 10 15
9 15 -3 0 -18 54 -42 76 -33 9 3 23 -2 32 -13 19 -20 137 -61 178 -61 14 0 35
-5 47 -12 12 -6 37 -14 56 -17 42 -7 46 -27 21 -87 -17 -39 -33 -100 -46 -179
-3 -16 -10 -40 -16 -52 -6 -12 -8 -32 -5 -44 3 -12 -1 -32 -9 -45 -17 -25 -50
-297 -37 -301 5 -2 8 -36 7 -76 -1 -68 9 -103 26 -92 4 2 5 -6 3 -19 -3 -12 1
-29 9 -37 7 -8 19 -25 26 -37 12 -21 11 -22 -33 -17 -40 4 -59 11 -105 37 -8
4 -22 11 -30 14 -68 28 -158 68 -170 75 -8 5 -40 20 -70 34 -30 14 -62 29 -70
35 -37 24 -145 70 -166 70 -13 0 -24 5 -24 10 0 6 -9 10 -19 10 -11 0 -22 4
-26 9 -3 5 -40 27 -83 48 -42 20 -94 48 -114 60 -21 13 -46 23 -57 23 -10 0
-21 6 -24 14 -3 7 -16 16 -29 19 -46 11 -102 35 -106 46 -2 6 -11 11 -20 11
-9 0 -41 14 -71 30 -30 17 -59 30 -65 30 -7 0 -30 9 -51 21 -80 41 -153 25
-238 -52 -17 -16 -46 -34 -64 -40 -17 -5 -35 -19 -38 -29 -3 -11 -21 -23 -38
-28 -18 -5 -50 -21 -71 -36 -21 -14 -43 -26 -48 -26 -5 0 -6 -4 -3 -10 3 -5
-1 -10 -10 -10 -21 0 -84 -41 -122 -79 -18 -17 -39 -31 -48 -31 -16 0 -137
-78 -143 -92 -2 -5 -10 -8 -17 -8 -8 0 -29 -13 -47 -29 -18 -15 -49 -36 -68
-46 -69 -35 -101 -66 -98 -94 2 -15 9 -25 16 -23 7 1 28 -9 46 -23 18 -14 38
-25 44 -25 7 0 12 -4 12 -9 0 -5 18 -12 39 -16 22 -4 45 -13 52 -21 6 -8 22
-14 34 -14 13 0 30 -11 39 -25 9 -14 23 -25 32 -25 17 0 137 -49 144 -59 3 -4
21 -13 40 -21 19 -7 42 -19 51 -27 8 -7 19 -13 22 -13 4 0 46 -19 94 -41 49
-23 113 -52 143 -66 86 -38 124 -57 136 -69 23 -20 108 -48 112 -36 2 7 13 22
23 34 l20 23 -6 -30 c-3 -16 -7 -36 -8 -44 -1 -9 14 -21 38 -30 22 -8 42 -18
45 -21 3 -3 39 -21 80 -39 41 -18 85 -41 98 -52 14 -10 30 -19 36 -19 17 0
120 -54 129 -67 4 -7 18 -13 31 -13 13 0 29 -7 36 -15 7 -8 19 -15 27 -15 9 0
34 -10 57 -21 22 -12 52 -27 66 -34 14 -7 45 -24 70 -37 25 -13 73 -34 108
-47 61 -23 166 -74 187 -91 22 -18 129 -69 157 -75 16 -4 32 -13 35 -20 2 -8
19 -17 36 -21 34 -7 190 -84 195 -96 2 -5 10 -8 17 -8 7 0 27 -11 43 -25 17
-14 41 -25 55 -25 13 0 30 -6 36 -14 7 -8 24 -17 39 -21 15 -3 50 -17 79 -31
28 -13 56 -24 61 -24 6 0 12 -7 16 -15 3 -8 14 -15 24 -15 10 0 39 -11 63 -25
47 -26 178 -90 219 -107 14 -6 32 -14 40 -19 8 -5 35 -19 60 -30 25 -11 52
-24 61 -29 29 -16 86 -22 93 -11 4 6 18 11 30 11 13 0 34 8 47 18 13 10 49 26
80 35 31 10 62 24 69 32 7 8 19 15 27 15 7 0 43 14 78 30 35 17 69 30 75 30 5
0 10 3 10 8 0 6 31 20 135 58 11 4 24 6 29 5 5 -1 6 5 3 14 -5 11 1 15 25 15
17 0 56 13 87 29 93 49 141 71 153 71 6 0 20 7 30 17 10 9 32 16 49 15 17 0
28 2 25 5 -9 10 15 33 34 33 10 0 23 7 30 15 7 8 24 15 39 15 14 0 40 8 56 18
17 10 55 28 85 39 30 12 83 36 118 53 40 21 71 31 88 27 16 -3 28 0 31 9 5 13
102 64 122 64 5 0 14 6 20 14 7 8 27 18 44 22 18 3 41 13 52 20 11 8 28 14 39
14 11 0 28 7 38 17 24 22 127 63 143 57 7 -3 15 2 18 10 4 9 13 13 21 10 8 -3
24 4 35 15 12 12 34 21 51 21 17 0 30 4 30 9 0 14 152 83 182 83 15 0 29 6 32
15 4 9 13 13 23 9 11 -5 24 2 37 19 15 18 31 26 54 27 17 1 32 5 32 9 0 11 61
36 108 45 33 6 89 34 68 34 -5 0 -1 9 9 20 10 11 26 20 35 20 10 0 23 7 30 15
7 8 22 15 34 15 12 0 31 6 42 14 11 8 41 23 65 32 24 10 50 24 57 31 7 7 27
13 43 13 16 0 29 4 29 10 0 5 12 13 28 16 15 4 55 22 90 41 35 18 70 33 77 33
7 0 26 7 42 15 15 8 67 33 116 54 59 27 87 45 87 57 0 21 -30 47 -155 134 -99
68 -121 84 -181 134 -18 14 -36 26 -41 26 -6 0 -23 11 -39 25 -40 35 -39 34
-137 99 -48 32 -98 71 -110 87 -12 17 -42 43 -67 59 -25 16 -72 48 -104 70
-33 22 -66 40 -74 40 -22 0 -93 -21 -132 -38 -19 -9 -40 -15 -46 -14 -7 1 -14
-4 -17 -12 -3 -7 -18 -17 -33 -20 -16 -4 -70 -27 -120 -52 -50 -24 -95 -44
-98 -44 -4 0 -16 -9 -27 -19 -11 -10 -33 -21 -47 -24 -66 -14 -88 -20 -102
-32 -8 -6 -35 -18 -60 -25 -25 -8 -61 -24 -80 -35 -19 -12 -56 -27 -82 -34
-26 -8 -53 -20 -59 -27 -6 -8 -19 -14 -29 -14 -10 0 -23 -7 -30 -15 -7 -8 -38
-23 -69 -32 -31 -9 -66 -22 -78 -30 -12 -8 -26 -12 -31 -9 -6 3 -15 -1 -22 -9
-7 -8 -19 -15 -28 -15 -8 0 -23 -7 -33 -16 -9 -8 -27 -16 -40 -17 -13 -1 -62
-21 -109 -43 -47 -23 -98 -44 -115 -48 l-30 -7 38 37 c40 38 82 117 90 169 3
17 10 57 16 90 5 33 8 101 5 150 -6 117 -32 324 -44 350 -19 41 -51 177 -48
202 3 23 10 28 56 38 28 7 52 10 52 8 0 -2 11 4 25 13 13 8 29 13 35 9 5 -3
63 10 128 31 64 20 142 43 172 51 30 8 62 21 71 29 8 8 21 14 27 14 7 0 29 10
50 23 20 12 54 31 76 42 21 11 57 37 80 58 22 20 44 37 49 37 7 0 70 96 74
115 1 5 7 27 12 49 5 21 7 55 4 75 -7 43 -49 131 -63 131 -6 0 -10 6 -10 14 0
7 -19 30 -42 50 -58 50 -59 51 -120 87 -29 18 -60 38 -69 46 -8 7 -42 22 -74
33 -32 11 -63 24 -70 30 -7 6 -37 17 -66 26 -30 9 -58 21 -64 28 -5 7 -35 16
-65 20 -30 4 -83 21 -118 37 -35 17 -70 28 -78 25 -21 -8 -54 15 -54 39 0 11
11 32 24 48 15 17 26 46 30 79 4 29 11 57 15 63 13 16 74 294 70 316 -1 8 1
62 5 121 10 130 -9 236 -52 291 -15 19 -34 48 -43 65 -19 35 -130 82 -193 82
-73 0 -193 -40 -319 -107 -15 -8 -34 -12 -42 -9 -8 3 -17 -3 -20 -15 -4 -10
-12 -19 -20 -19 -7 0 -15 -3 -17 -7 -3 -8 -64 -57 -103 -83 -12 -8 -35 -24
-51 -35 -38 -26 -134 -122 -134 -135 0 -6 -5 -10 -11 -10 -6 0 -34 -23 -60
-51 l-49 -50 -77 83 c-110 118 -246 248 -260 248 -7 0 -13 5 -13 10 0 6 -7 10
-15 10 -8 0 -15 3 -15 8 0 4 -17 18 -38 32 -20 14 -39 27 -42 30 -3 3 -16 11
-30 18 -14 7 -50 27 -80 44 -112 64 -290 95 -355 61z m205 -107 c19 -5 46 -17
59 -27 13 -11 36 -19 50 -19 15 0 41 -12 58 -27 79 -69 115 -94 128 -89 9 3
15 -1 15 -9 0 -8 22 -32 49 -52 28 -21 53 -46 56 -55 4 -10 13 -18 21 -18 8 0
14 -4 14 -8 0 -14 84 -94 108 -103 12 -5 22 -15 22 -24 0 -8 3 -15 8 -15 12 0
43 -86 36 -103 -3 -9 -17 -23 -30 -32 -14 -9 -40 -40 -59 -69 -19 -30 -40 -60
-47 -67 -34 -35 -98 -123 -98 -133 0 -22 -56 -54 -105 -60 -28 -3 -93 -8 -145
-11 -52 -3 -124 -10 -160 -16 -91 -15 -142 -9 -155 17 -6 12 -17 29 -24 37 -7
9 -10 21 -6 27 3 5 1 26 -4 45 -6 19 -16 52 -23 73 -6 20 -12 46 -14 57 -2 11
-11 61 -20 110 -10 50 -18 117 -20 150 -1 33 -4 68 -8 78 -14 39 -14 47 -7 79
5 18 14 57 21 87 7 29 19 65 26 80 8 14 14 29 14 33 0 4 11 19 25 34 35 37
130 51 215 30z m1597 -47 c60 -26 103 -66 103 -97 0 -13 5 -32 10 -42 16 -29
22 -205 11 -295 -13 -108 -60 -294 -111 -447 l-22 -67 -67 6 c-36 3 -84 11
-106 18 -22 7 -98 18 -170 25 -118 11 -183 25 -170 38 3 3 -2 10 -10 16 -15
11 -70 87 -170 232 -30 45 -62 87 -70 94 -29 24 -18 66 31 117 25 26 53 58 63
69 9 12 33 30 52 41 19 10 51 35 71 56 21 20 41 37 45 37 5 0 27 18 51 40 23
22 47 40 52 40 6 0 10 5 10 10 0 6 7 10 15 10 8 0 15 4 15 9 0 5 20 17 45 26
25 10 50 24 56 31 6 8 21 14 34 14 12 0 25 3 29 8 6 6 92 24 143 31 6 0 33 -8
60 -20z m-845 -601 c22 -24 56 -69 75 -100 20 -32 40 -58 44 -58 5 0 9 -6 9
-14 0 -8 3 -16 8 -18 8 -3 42 -62 42 -73 0 -6 -69 -4 -185 6 -5 0 -48 1 -95 1
-102 0 -148 3 -156 11 -7 7 12 44 47 86 15 19 26 38 24 42 -3 4 4 9 15 12 11
3 20 12 20 21 0 18 34 56 50 56 6 0 10 7 10 15 0 8 6 15 14 15 7 0 16 9 19 20
7 28 15 25 59 -22z m-596 -354 c-5 -12 1 -15 27 -14 57 3 67 1 67 -19 0 -11
-3 -21 -7 -23 -10 -4 -65 -86 -75 -110 -4 -10 -12 -18 -18 -18 -5 0 -10 -6
-10 -14 0 -18 -32 -76 -42 -76 -5 0 -8 -9 -8 -20 0 -11 -6 -20 -13 -20 -7 0
-21 -19 -32 -42 -11 -24 -24 -41 -30 -39 -5 2 -19 27 -29 55 -10 28 -27 62
-37 75 -11 13 -19 28 -19 33 0 5 -10 30 -21 56 -12 25 -24 62 -26 82 -5 32 -2
37 28 50 19 9 33 21 32 28 -4 17 8 15 22 -4 9 -14 22 -15 73 -9 45 5 62 11 62
22 0 10 6 12 20 8 11 -4 20 -2 20 4 0 6 5 11 11 11 6 0 8 -7 5 -16z m339 -15
c6 0 55 1 110 2 55 1 165 -2 245 -6 146 -8 200 -21 200 -49 0 -8 4 -16 8 -18
4 -1 20 -28 36 -58 15 -30 36 -64 46 -75 9 -11 27 -42 40 -70 13 -27 36 -69
52 -92 15 -23 28 -47 28 -53 0 -6 11 -28 25 -48 29 -43 33 -103 8 -123 -9 -8
-21 -25 -27 -39 -19 -41 -77 -140 -87 -146 -5 -3 -9 -13 -9 -23 0 -10 -12 -31
-26 -47 -29 -33 -94 -131 -94 -142 0 -4 -17 -20 -38 -37 -35 -28 -43 -30 -142
-33 -128 -4 -112 -4 -190 2 -36 3 -119 8 -184 11 -72 4 -123 11 -130 19 -20
21 -56 75 -56 83 0 4 -16 28 -35 51 -19 24 -37 53 -41 65 -4 11 -22 42 -40 69
-19 26 -34 50 -34 53 0 4 -21 48 -46 100 l-46 94 20 33 c11 18 25 49 31 69 7
20 21 45 31 54 11 10 20 24 20 32 0 7 4 13 9 13 5 0 13 10 16 23 4 12 18 36
31 54 13 17 24 38 24 45 0 7 18 33 40 57 22 24 44 59 51 78 13 41 53 62 108
56 20 -2 41 -4 46 -4z m825 -50 c41 -5 105 -13 143 -18 74 -9 85 -14 70 -33
-6 -7 -23 -44 -38 -82 -15 -38 -31 -77 -35 -85 -4 -9 -15 -34 -25 -56 -19 -47
-51 -89 -63 -81 -4 2 -18 24 -31 48 -12 24 -33 61 -47 83 -13 22 -29 54 -37
70 -8 17 -25 44 -39 60 -14 17 -30 47 -36 67 -9 34 -8 37 11 41 12 2 29 2 37
0 8 -3 49 -9 90 -14z m-1564 -7 c6 -4 14 -17 18 -30 6 -18 12 -21 34 -16 25 5
26 4 9 -10 -18 -14 -18 -17 6 -88 25 -74 52 -140 68 -168 16 -27 32 -65 36
-85 2 -11 8 -24 13 -29 17 -17 11 -52 -16 -91 -30 -45 -74 -134 -74 -151 0 -6
-7 -14 -15 -18 -8 -3 -15 -14 -15 -24 0 -11 -7 -39 -15 -63 -12 -34 -13 -44
-3 -52 9 -6 7 -7 -6 -3 -22 8 -36 -8 -36 -41 0 -19 -6 -23 -32 -23 -17 0 -54
6 -82 14 -93 26 -136 33 -142 25 -9 -15 -21 -10 -26 9 -3 10 -11 19 -19 19 -8
0 -23 3 -35 7 -14 4 -26 1 -34 -9 -18 -21 -30 -19 -27 6 1 16 -6 24 -28 32
-16 5 -37 16 -46 23 -8 8 -23 14 -32 14 -10 0 -25 4 -35 10 -9 5 -35 17 -57
26 -22 10 -50 28 -62 41 -12 13 -36 26 -53 29 -16 4 -28 10 -25 14 3 5 -9 13
-25 19 -17 5 -30 17 -30 26 0 8 -18 35 -41 60 -40 43 -40 45 -37 111 2 47 -1
68 -9 71 -7 3 -13 -3 -13 -12 0 -9 -4 -14 -10 -10 -13 8 9 55 26 55 7 0 15 -9
19 -20 5 -17 13 -13 56 37 27 31 64 63 82 71 17 7 40 18 49 23 97 50 180 89
198 93 8 1 33 10 55 20 22 10 69 24 105 32 36 8 72 17 80 21 8 4 22 8 30 9 8
1 29 4 45 7 17 2 37 7 45 10 8 3 29 8 45 10 17 2 35 5 40 5 6 1 15 -2 21 -6z
m2002 -67 c12 0 22 -3 22 -7 0 -5 11 -8 26 -8 14 0 45 -9 69 -20 23 -11 58
-22 76 -24 61 -8 134 -39 143 -61 3 -9 18 -15 41 -15 19 0 35 -4 35 -10 0 -5
5 -10 12 -10 6 0 19 -6 27 -14 25 -21 110 -66 126 -66 7 0 17 -9 20 -20 3 -11
11 -20 16 -20 18 0 69 -65 75 -98 3 -18 10 -35 15 -38 14 -8 11 -57 -5 -95
-14 -33 -56 -81 -56 -64 0 4 -15 -8 -32 -27 -51 -55 -362 -198 -472 -217 -28
-5 -80 -17 -115 -25 -36 -9 -86 -19 -113 -21 -43 -4 -48 -3 -48 15 0 11 -6 20
-13 20 -8 0 -20 28 -31 70 -10 38 -24 74 -32 81 -7 6 -18 35 -24 65 -6 29 -17
57 -23 61 -7 5 -21 34 -31 67 -20 66 -16 111 15 150 11 14 33 56 48 93 32 76
58 131 72 153 5 8 16 32 25 52 16 38 46 51 89 39 11 -3 30 -5 43 -6z m-1684
-490 c-4 -8 -9 -13 -13 -10 -4 2 -7 -19 -7 -46 1 -40 6 -55 24 -69 12 -10 22
-29 22 -42 0 -12 17 -45 37 -73 41 -56 83 -133 83 -154 0 -11 -18 -12 -92 -6
-51 5 -107 9 -125 9 -18 1 -35 5 -39 9 -13 12 -102 8 -107 -5 -2 -7 -7 -11
-10 -8 -9 8 20 105 47 156 14 27 26 55 26 62 0 7 13 32 28 55 16 23 32 55 36
71 4 16 15 30 26 33 11 3 20 9 20 13 0 7 17 15 42 19 4 0 5 -6 2 -14z m1325
-82 c7 -16 20 -48 28 -73 8 -25 21 -59 29 -77 8 -17 14 -36 14 -42 0 -7 9 -31
20 -53 18 -38 25 -68 16 -68 -2 0 -25 -4 -52 -9 -83 -16 -314 -25 -314 -13 0
16 60 102 71 102 5 0 9 8 9 18 0 9 14 37 30 61 17 24 30 50 30 58 0 7 4 13 8
13 5 0 15 12 22 28 25 48 51 82 64 82 7 0 18 -12 25 -27z m-1474 -393 c28 -7
66 -13 85 -14 19 -2 37 -4 40 -6 3 -1 15 -4 26 -5 12 -1 66 -8 120 -15 l99
-13 68 -71 c37 -39 67 -74 67 -79 0 -14 62 -107 72 -107 4 0 8 -6 8 -13 0 -7
14 -27 30 -45 17 -18 30 -37 30 -42 0 -5 6 -15 14 -23 12 -12 2 -26 -76 -105
-50 -51 -97 -92 -104 -92 -8 0 -14 -4 -14 -9 0 -5 -30 -33 -67 -62 -38 -29
-72 -58 -78 -64 -5 -7 -26 -20 -45 -30 -19 -9 -42 -23 -50 -31 -8 -7 -53 -32
-100 -56 -81 -41 -89 -43 -173 -43 l-88 0 -42 45 c-66 71 -77 106 -81 255 -3
102 -1 135 10 153 11 16 12 27 4 41 -6 12 -6 21 0 23 5 2 14 37 21 78 6 41 20
94 30 117 10 23 19 51 19 62 0 11 4 22 9 25 4 3 14 33 21 66 18 85 24 87 145
60z m1634 -42 c17 -44 41 -131 42 -152 0 -31 35 -157 41 -151 2 3 6 -18 7 -46
1 -28 6 -72 12 -97 13 -59 4 -223 -17 -293 -43 -145 -77 -174 -199 -174 -62 1
-80 5 -159 44 -48 25 -100 54 -115 66 -14 12 -46 36 -71 53 -70 49 -280 246
-280 263 0 4 -9 11 -20 14 -11 3 -20 13 -20 21 0 8 -7 17 -15 20 -18 7 -20 64
-2 64 13 0 36 25 123 135 27 33 56 68 65 78 9 10 32 40 49 66 28 40 41 50 81
60 26 7 83 13 126 13 43 1 83 3 88 7 6 3 33 6 60 7 53 2 104 10 111 16 2 2 22
5 44 6 34 2 41 -1 49 -20z m-649 -31 c0 -5 -9 -20 -20 -34 -11 -14 -20 -37
-20 -52 0 -17 -3 -22 -8 -13 -6 9 -14 4 -29 -17 -33 -44 -155 -171 -165 -171
-4 0 -8 7 -8 15 0 8 -4 15 -10 15 -10 0 -50 36 -50 45 0 3 -9 16 -20 27 -11
12 -37 48 -58 80 -21 32 -45 57 -54 58 -11 0 -15 5 -12 14 3 8 1 17 -5 21 -33
20 10 24 224 22 129 -1 235 -6 235 -10z m-2633 -371 c18 -7 41 -20 51 -29 10
-9 22 -17 26 -17 4 0 37 -13 73 -30 35 -16 66 -30 69 -30 2 0 4 9 4 20 0 11 5
20 11 20 6 0 9 -9 6 -19 -8 -30 29 -55 123 -82 25 -7 53 -19 62 -27 10 -8 25
-12 33 -8 11 4 15 2 12 -6 -4 -15 65 -58 93 -58 10 0 23 -7 30 -15 7 -8 17
-15 22 -15 15 0 161 -73 177 -88 7 -7 20 -11 27 -8 7 3 32 -7 54 -21 22 -15
50 -27 62 -28 12 -1 24 -7 26 -13 2 -7 21 -16 43 -22 21 -6 39 -15 39 -20 0
-6 7 -10 16 -10 8 0 53 -18 99 -40 46 -22 88 -40 94 -40 5 0 11 -4 13 -8 5
-12 358 -182 377 -182 7 0 21 -9 33 -20 12 -11 31 -20 42 -20 11 0 27 -6 35
-13 9 -7 45 -26 81 -41 36 -15 74 -32 85 -38 21 -13 92 -48 165 -82 25 -11 47
-23 50 -26 8 -8 50 -26 103 -45 26 -9 47 -21 47 -26 0 -5 11 -9 25 -9 25 0 33
-14 15 -25 -6 -4 -8 -11 -4 -16 10 -17 7 -234 -11 -689 -2 -47 -4 -100 -4
-117 -1 -27 -5 -33 -22 -33 -11 0 -33 6 -47 14 -15 8 -74 37 -132 65 -58 28
-112 55 -120 60 -45 25 -79 41 -88 41 -13 0 -104 43 -171 80 -30 16 -60 30
-68 30 -7 0 -30 10 -51 23 -40 26 -167 87 -180 87 -4 0 -59 26 -122 58 -63 32
-140 67 -170 78 -30 10 -68 28 -85 40 -16 12 -52 32 -79 44 -28 12 -103 48
-167 80 -65 32 -128 62 -141 66 -13 4 -39 17 -58 29 -19 12 -57 30 -85 40 -54
19 -132 56 -180 84 -32 19 -110 47 -110 40 -1 -2 -19 10 -40 27 -48 36 -111
70 -174 91 -25 8 -66 27 -91 42 -25 15 -61 33 -80 41 -19 7 -42 19 -50 26 -8
6 -29 15 -47 19 -43 9 -113 43 -113 55 0 6 -5 10 -11 10 -5 0 -37 14 -71 30
-33 17 -69 30 -79 30 -10 0 -19 4 -19 9 0 5 -26 21 -57 36 -153 70 -223 110
-223 127 0 10 7 18 16 18 8 0 36 18 62 39 26 21 57 42 69 45 13 4 41 23 64 42
22 19 46 34 53 34 7 0 27 13 46 30 18 16 43 33 54 36 33 10 47 25 37 38 -6 8
1 12 25 13 20 1 47 12 64 27 17 13 39 27 50 31 11 3 20 11 20 16 0 5 19 18 43
29 47 22 79 41 88 53 12 17 75 44 89 39 8 -2 29 -10 47 -16z m2449 -143 c24
-27 44 -53 44 -59 0 -6 17 -23 38 -37 20 -15 52 -44 70 -66 18 -21 52 -52 75
-68 23 -15 47 -31 52 -36 6 -4 33 -24 60 -45 28 -22 64 -45 80 -54 48 -23 78
-41 108 -65 16 -13 39 -23 52 -23 13 0 25 -4 27 -10 2 -5 45 -11 97 -14 51 -3
96 -8 99 -11 3 -3 -4 -5 -16 -5 -11 0 -23 -4 -26 -9 -3 -4 -34 -19 -68 -31
-60 -22 -140 -62 -164 -81 -7 -6 -16 -8 -20 -7 -10 3 -103 -30 -119 -43 -6 -4
-37 -18 -70 -30 -33 -12 -73 -31 -90 -41 -16 -10 -37 -18 -45 -18 -8 0 -28 -7
-44 -15 -15 -8 -35 -15 -42 -15 -8 0 -14 -7 -14 -15 0 -9 -9 -15 -24 -15 -14
0 -40 -9 -58 -20 -37 -22 -99 -18 -119 6 -6 8 -18 14 -26 14 -8 0 -45 15 -82
34 -84 43 -165 76 -185 76 -9 0 -16 4 -16 9 0 12 -58 41 -82 41 -10 0 -18 4
-18 8 0 11 -201 112 -222 112 -9 0 -18 7 -22 15 -3 8 -11 15 -18 16 -7 0 -40
11 -73 25 -33 13 -50 22 -37 20 15 -3 25 1 29 11 4 9 8 11 12 4 7 -11 158 22
175 39 6 6 18 10 28 10 10 0 36 11 58 25 22 14 44 25 48 25 5 0 42 25 83 55
41 30 80 55 87 55 6 0 12 4 12 10 0 5 32 33 70 61 39 29 70 56 70 59 0 4 18
20 40 35 22 15 40 33 40 40 0 13 77 75 93 75 5 0 28 -21 53 -47z m2420 29 c10
-10 35 -29 54 -42 19 -13 41 -30 48 -37 7 -7 20 -13 28 -13 8 0 14 -6 14 -14
0 -7 14 -16 30 -19 17 -4 30 -12 30 -19 1 -7 23 -24 50 -37 28 -13 50 -30 50
-38 0 -7 7 -13 16 -13 9 0 18 -9 21 -20 3 -11 12 -20 19 -20 8 0 14 -5 14 -11
0 -6 8 -8 18 -5 10 4 29 -4 46 -19 16 -14 35 -25 43 -25 7 0 13 -6 13 -14 0
-8 9 -21 20 -29 11 -8 17 -17 13 -20 -3 -4 3 -7 15 -7 12 0 22 -4 22 -8 0 -4
9 -8 21 -9 34 -3 77 -82 50 -91 -6 -2 -18 -10 -25 -18 -8 -8 -19 -14 -25 -14
-6 0 -20 -9 -31 -20 -10 -10 -30 -21 -44 -23 -14 -1 -28 -6 -32 -10 -4 -4 -15
-7 -24 -7 -10 0 -23 -6 -29 -14 -6 -7 -30 -16 -53 -19 -23 -3 -47 -13 -54 -21
-6 -9 -21 -16 -33 -16 -11 0 -21 -4 -21 -10 0 -5 -11 -10 -24 -10 -14 0 -28
-4 -31 -10 -3 -5 -15 -10 -26 -10 -10 0 -19 -4 -19 -9 0 -5 -14 -11 -32 -15
-17 -3 -37 -15 -45 -26 -8 -11 -23 -20 -33 -20 -11 0 -34 -9 -52 -20 -18 -11
-42 -20 -54 -20 -24 0 -84 -28 -84 -39 0 -10 -70 -37 -87 -33 -7 2 -16 -4 -19
-13 -3 -8 -13 -15 -21 -15 -7 0 -55 -20 -106 -44 -143 -69 -191 -89 -203 -87
-7 1 -14 -5 -18 -14 -3 -8 -16 -15 -30 -15 -13 0 -63 -20 -112 -45 -48 -25
-94 -45 -103 -45 -9 0 -31 -9 -49 -20 -18 -11 -39 -20 -46 -20 -7 0 -19 -7
-26 -15 -7 -8 -19 -15 -27 -15 -12 0 -182 -77 -253 -114 -14 -7 -50 -21 -80
-31 -30 -10 -71 -26 -90 -36 -19 -11 -39 -19 -44 -19 -5 0 -17 -6 -25 -13 -17
-14 -203 -97 -218 -97 -4 0 -39 -16 -76 -35 -38 -19 -73 -35 -79 -35 -7 0 -32
-9 -57 -21 -25 -12 -71 -32 -101 -46 -30 -14 -68 -31 -85 -39 -53 -24 -158
-70 -225 -98 -36 -16 -77 -34 -92 -42 -33 -18 -54 -19 -40 -1 8 10 22 468 25
815 1 46 5 62 15 62 8 0 26 8 40 18 30 21 83 45 187 87 39 16 75 32 80 35 6 4
26 11 45 15 19 4 52 18 72 31 21 13 44 24 51 24 7 0 32 9 55 20 22 11 45 20
50 20 5 0 15 7 22 15 7 8 25 15 41 15 16 0 29 4 29 9 0 4 37 23 82 40 45 18
91 39 102 46 12 7 35 16 53 20 17 3 37 13 44 21 6 8 23 14 38 14 15 0 31 4 36
9 6 5 35 19 65 31 30 12 61 27 69 33 15 13 68 34 126 49 22 6 47 17 56 24 8 8
23 14 31 14 9 0 21 6 27 13 6 8 30 19 53 26 24 7 80 30 126 52 45 21 91 39
102 39 11 0 20 5 20 10 0 6 8 10 18 10 9 0 31 9 47 20 17 11 43 20 58 20 15 0
30 7 33 15 4 8 12 15 19 15 6 0 25 7 42 15 16 8 38 16 49 18 10 1 39 12 64 24
25 12 57 25 72 28 15 4 29 13 32 21 3 8 14 14 25 14 11 0 48 14 82 31 102 52
135 58 165 31z m-3476 -398 c0 -17 -11 -18 -33 -1 -16 11 -15 12 8 13 15 1 25
-3 25 -12z m4260 -79 c0 -8 -7 -15 -15 -15 -8 0 -15 -6 -15 -12 0 -9 -4 -8
-10 2 -14 21 -12 28 8 33 30 8 32 7 32 -8z"/>
<path d="M1302 8053 c-22 -4 -52 -48 -52 -78 0 -8 -4 -15 -10 -15 -5 0 -10
-14 -10 -32 0 -18 -11 -45 -26 -65 -17 -23 -24 -43 -22 -64 1 -16 -2 -33 -8
-37 -16 -11 -44 -89 -44 -123 0 -17 -4 -28 -9 -25 -12 8 -53 -106 -45 -127 3
-10 1 -17 -5 -17 -15 0 -41 -61 -41 -95 0 -14 -4 -25 -10 -25 -5 0 -10 -8 -10
-18 0 -11 -7 -33 -16 -51 -9 -18 -18 -51 -21 -74 -3 -23 -10 -47 -14 -53 -11
-14 -17 -49 -18 -107 -1 -27 -5 -46 -9 -43 -5 3 -16 -36 -26 -87 -10 -51 -22
-108 -27 -127 -19 -80 -37 -211 -45 -320 -2 -25 -8 -92 -13 -150 -9 -93 -8
-106 7 -117 8 -7 11 -13 5 -13 -24 0 -32 -394 -12 -630 5 -63 11 -146 14 -185
3 -38 10 -74 15 -79 6 -6 10 -26 10 -45 0 -20 4 -52 9 -71 5 -19 12 -55 15
-80 3 -25 13 -76 22 -115 9 -38 21 -93 28 -122 6 -28 15 -55 19 -59 4 -4 7
-17 7 -29 0 -11 5 -26 11 -32 7 -7 13 -23 14 -36 2 -14 10 -40 18 -58 8 -19
23 -54 33 -79 10 -25 22 -48 27 -51 5 -3 8 -10 7 -15 -3 -22 22 -97 45 -130
14 -20 22 -41 19 -46 -3 -5 3 -12 14 -15 13 -3 21 -16 25 -39 3 -18 15 -43 26
-56 12 -12 21 -29 21 -39 0 -9 16 -34 35 -55 19 -22 37 -53 41 -71 3 -17 14
-40 23 -50 10 -10 31 -42 47 -70 41 -72 98 -155 123 -177 19 -17 21 -17 21 -3
0 10 5 17 11 17 6 0 8 -8 4 -20 -4 -13 0 -23 13 -31 11 -7 18 -18 15 -25 -6
-15 103 -164 120 -164 7 0 19 -15 26 -32 8 -18 36 -54 63 -79 26 -25 48 -49
48 -53 0 -14 122 -126 136 -126 8 0 14 -9 14 -20 0 -11 7 -20 15 -20 8 0 19
-9 25 -20 12 -22 55 -70 62 -70 3 0 23 -17 44 -38 22 -20 66 -59 98 -87 33
-27 81 -69 106 -93 26 -23 54 -42 62 -42 8 0 27 -14 44 -31 31 -34 129 -109
140 -109 4 0 30 -17 58 -38 76 -56 131 -92 141 -92 4 0 31 -15 59 -33 28 -19
67 -40 86 -47 50 -20 150 -81 150 -91 0 -5 7 -9 16 -9 9 0 43 -16 75 -35 33
-19 62 -35 65 -35 7 0 112 -48 157 -72 37 -19 39 -19 52 -2 14 18 14 18 15 -2
0 -23 32 -42 100 -62 19 -6 51 -15 71 -21 19 -6 47 -11 61 -11 15 0 28 -5 30
-11 5 -14 56 -33 193 -70 204 -55 230 -60 257 -56 15 2 26 -1 25 -7 -1 -6 39
-19 88 -29 50 -10 110 -25 135 -32 25 -8 101 -19 170 -25 193 -15 209 -17 300
-34 91 -17 281 -24 855 -32 476 -7 1515 -16 1540 -14 11 1 29 2 40 2 44 -1
471 -2 490 -1 11 1 108 -1 215 -5 373 -10 1094 -6 1137 8 10 3 70 8 133 11 63
3 131 9 150 15 19 5 61 10 92 10 31 0 60 5 63 10 3 6 19 10 34 10 26 0 140 22
351 67 69 14 119 31 162 54 10 5 34 9 53 9 19 0 43 4 53 9 9 5 91 33 182 64
163 54 281 99 310 117 8 6 22 13 30 16 52 22 124 57 178 88 35 20 70 36 78 36
8 0 14 5 14 10 0 6 5 10 10 10 17 0 229 118 290 161 30 21 83 57 118 80 34 22
65 46 70 53 10 18 111 86 127 86 7 0 15 7 19 15 3 8 12 15 21 15 8 0 15 7 15
15 0 8 3 15 8 15 8 0 122 99 210 181 30 27 71 61 93 76 21 14 39 29 39 34 0 5
6 6 14 3 9 -3 17 6 24 25 6 17 17 31 25 31 8 0 17 9 20 20 3 11 16 24 29 29
12 4 22 11 20 15 -5 9 97 133 165 202 29 29 53 57 53 62 0 5 9 19 20 32 11 13
20 18 20 11 0 -7 4 -9 10 -6 5 3 10 17 10 31 0 13 9 29 20 36 11 7 20 21 20
31 0 11 9 21 20 24 11 3 17 9 14 14 -7 13 65 99 83 99 9 0 13 6 9 15 -3 8 -1
15 4 15 6 0 10 10 10 23 1 25 22 57 39 57 6 0 11 6 11 13 0 22 37 91 59 111
12 11 21 25 21 31 0 7 9 24 20 38 11 14 20 32 20 41 0 8 8 21 19 28 18 13 21
18 21 39 0 5 5 7 11 3 9 -5 10 1 5 20 -4 18 -3 25 4 21 5 -3 10 2 10 12 0 10
9 37 20 58 12 22 26 59 32 82 5 24 14 40 18 38 12 -7 19 6 24 46 9 61 16 84
28 94 7 6 14 26 16 44 3 41 10 51 21 32 15 -24 33 23 21 53 -6 16 -6 26 0 26
25 0 49 115 25 123 -6 2 -4 11 4 21 11 13 16 14 22 4 6 -9 9 -6 9 10 0 12 -5
22 -11 22 -14 0 -1 42 19 57 14 12 14 13 -2 13 -12 0 -16 5 -12 16 3 9 7 25 7
37 1 17 3 15 9 -8 l8 -30 2 35 c1 19 1 46 1 60 -2 24 25 86 49 115 10 12 9 15
-10 15 -19 0 -20 2 -10 15 7 8 9 15 4 15 -5 0 -2 5 6 11 11 8 12 12 3 16 -18
7 -16 23 2 23 12 0 14 4 7 16 -10 18 -5 51 11 72 6 8 6 12 -2 12 -6 0 -11 9
-11 20 0 22 16 27 23 8 2 -7 6 -1 9 13 3 17 0 26 -8 26 -7 0 -10 -5 -7 -11 4
-6 2 -7 -3 -3 -19 18 -12 243 7 231 14 -9 10 6 -6 23 -8 8 -13 18 -10 23 11
18 22 101 14 105 -4 3 -3 20 2 37 5 17 7 48 4 67 -14 111 -20 358 -9 394 3 9
2 17 -3 17 -4 0 -9 30 -11 66 -2 43 1 63 8 59 5 -3 10 -1 10 4 0 6 -7 11 -16
11 -9 0 -14 7 -13 18 1 9 -1 24 -4 32 -15 34 -24 99 -23 160 1 45 -3 68 -13
76 -8 6 -15 29 -17 52 -1 22 -5 45 -9 52 -4 7 -7 37 -7 66 0 30 -4 56 -9 60
-5 3 -9 20 -9 38 0 18 -7 41 -15 52 -8 10 -15 31 -15 47 0 15 -4 27 -10 27 -5
0 -10 8 -10 18 0 10 -4 22 -9 27 -5 6 -12 30 -15 54 -3 24 -8 46 -11 49 -3 3
0 11 6 19 9 10 8 13 -3 13 -11 0 -17 16 -21 60 -3 34 -9 66 -14 73 -25 32 -56
133 -55 178 1 37 -3 49 -14 49 -8 0 -14 4 -14 8 0 5 -8 18 -18 30 -16 18 -37
23 -133 32 -63 5 -148 9 -189 8 -41 -2 -160 0 -265 4 -104 4 -338 10 -520 13
-181 4 -381 8 -443 10 -92 3 -114 1 -119 -11 -6 -15 5 -66 36 -174 46 -156 80
-312 91 -415 4 -38 15 -122 24 -185 9 -63 21 -207 26 -320 5 -113 10 -209 10
-215 2 -11 -10 -93 -36 -250 -9 -55 -17 -127 -18 -160 0 -33 -4 -65 -8 -71 -4
-6 -12 -39 -18 -75 -18 -107 -37 -188 -48 -201 -5 -7 -12 -31 -15 -53 -24
-174 -34 -215 -50 -209 -10 3 -17 -12 -26 -53 -7 -32 -18 -71 -26 -88 -7 -16
-18 -41 -24 -55 -6 -14 -15 -32 -21 -40 -5 -8 -19 -37 -30 -65 -27 -65 -47
-100 -57 -101 -27 -2 -100 -17 -108 -23 -5 -4 -35 -14 -65 -23 -30 -9 -120
-38 -200 -64 -80 -26 -157 -47 -172 -46 -22 1 -28 -3 -28 -19 0 -18 -4 -20
-29 -14 -16 3 -32 2 -35 -4 -3 -5 -25 -12 -49 -16 -23 -4 -75 -20 -115 -35
-40 -16 -102 -36 -139 -45 -36 -9 -73 -21 -82 -25 -13 -7 -247 -82 -381 -123
-19 -5 -60 -19 -90 -30 -30 -10 -91 -30 -135 -42 -77 -22 -163 -48 -270 -81
-27 -9 -70 -22 -95 -29 -25 -8 -79 -26 -120 -40 -41 -14 -96 -31 -123 -36 -26
-6 -55 -18 -64 -27 -9 -10 -41 -19 -78 -23 -34 -3 -77 -14 -95 -23 -18 -9 -40
-16 -49 -16 -15 0 -108 -33 -143 -51 -10 -5 -23 -9 -30 -9 -20 0 -236 -67
-398 -122 -80 -28 -152 -50 -160 -50 -8 0 -24 -4 -35 -9 -11 -5 -60 -20 -110
-33 -49 -13 -124 -36 -165 -51 -41 -15 -84 -29 -95 -31 -18 -3 -145 -44 -200
-65 -41 -15 -85 -18 -117 -7 -54 18 -52 25 6 24 30 -1 52 -4 50 -7 -2 -3 19 5
47 18 67 33 170 65 187 58 7 -2 11 -1 8 4 -6 10 50 34 104 46 19 4 40 10 45
14 6 4 30 14 55 21 25 8 56 20 70 27 14 7 32 13 40 13 8 0 23 7 33 15 11 7 38
17 60 20 23 4 49 13 57 20 8 7 31 15 50 19 19 3 48 13 64 21 34 18 233 85 251
85 7 0 18 6 24 14 6 8 32 17 56 20 25 4 47 11 50 17 4 5 19 9 34 9 15 0 31 4
37 8 10 9 199 79 359 134 17 5 39 14 50 18 11 5 49 19 85 30 36 12 75 26 88
31 12 5 32 13 45 18 12 5 42 14 67 21 25 6 63 20 85 30 22 10 60 24 85 30 25
7 59 19 77 26 17 8 39 14 50 14 10 0 38 10 63 22 42 19 214 82 355 129 33 12
69 25 80 29 27 12 163 60 200 70 42 12 264 89 300 104 17 7 57 21 90 31 33 10
80 27 105 38 25 11 56 23 70 28 14 4 50 17 80 29 30 12 64 23 75 24 17 2 132
52 144 62 10 9 1 69 -13 82 -13 14 -22 13 -78 -11 -35 -15 -68 -27 -74 -27 -6
0 -23 -9 -36 -20 -14 -10 -28 -17 -30 -14 -6 5 -338 -106 -425 -143 -17 -7
-36 -13 -43 -13 -11 0 -113 -38 -175 -65 -16 -7 -59 -22 -95 -34 -59 -19 -163
-56 -215 -76 -11 -4 -49 -19 -85 -32 -36 -13 -81 -30 -100 -37 -19 -8 -66 -24
-105 -36 -38 -12 -78 -29 -87 -37 -9 -8 -21 -12 -26 -9 -11 7 -137 -33 -222
-69 -30 -13 -95 -36 -145 -51 -49 -15 -97 -33 -106 -41 -8 -7 -50 -21 -94 -32
-43 -11 -83 -25 -88 -30 -6 -6 -19 -11 -29 -11 -9 0 -33 -9 -53 -20 -20 -11
-46 -20 -60 -20 -13 0 -44 -11 -69 -24 -24 -13 -69 -29 -98 -36 -63 -15 -115
-33 -183 -65 -27 -13 -68 -26 -90 -30 -22 -4 -44 -10 -50 -15 -5 -4 -39 -18
-75 -30 -36 -12 -83 -31 -105 -42 -22 -10 -58 -21 -80 -23 -22 -2 -32 -2 -22
1 9 3 17 10 17 15 0 5 6 9 13 9 7 0 29 8 48 18 20 10 61 26 92 36 32 10 73 29
92 42 20 13 47 24 60 24 13 0 26 4 30 9 3 5 22 15 43 21 20 6 61 23 90 36 29
13 59 24 67 24 7 0 17 5 20 10 3 6 13 10 22 10 9 0 35 9 57 19 23 10 73 31
111 46 39 15 89 37 112 50 23 13 59 29 80 35 21 7 68 27 105 46 37 18 95 43
129 54 35 12 74 30 87 41 14 10 32 19 41 19 9 0 29 7 45 15 15 8 36 15 45 15
9 0 45 16 79 35 35 18 77 37 93 40 16 4 29 11 29 17 0 6 7 8 15 4 8 -3 53 12
99 34 47 22 90 40 95 40 6 0 11 4 11 8 0 5 24 14 53 21 28 8 78 27 109 42 32
16 62 29 67 29 13 0 113 43 163 70 20 11 48 20 61 20 14 0 30 7 37 15 7 8 18
15 24 15 7 0 29 9 51 20 22 11 46 20 55 20 9 0 44 14 78 30 34 17 65 30 67 30
3 0 40 16 83 36 89 41 98 45 174 74 62 24 77 49 56 95 -11 24 -16 26 -47 20
-20 -4 -40 -11 -45 -16 -6 -5 -18 -9 -27 -9 -9 0 -19 -7 -23 -15 -3 -8 -14
-15 -24 -15 -10 0 -22 -4 -28 -9 -5 -5 -27 -14 -49 -21 -22 -7 -56 -21 -75
-31 -19 -11 -43 -19 -53 -19 -9 0 -56 -18 -103 -40 -47 -22 -104 -46 -127 -54
-23 -8 -69 -29 -102 -48 -33 -18 -71 -35 -85 -37 -14 -1 -41 -11 -60 -21 -20
-10 -54 -21 -75 -25 -22 -4 -55 -16 -73 -26 -18 -10 -39 -19 -45 -19 -7 0 -29
-9 -50 -20 -20 -11 -44 -20 -52 -20 -8 0 -15 -4 -15 -10 0 -5 -17 -12 -37 -15
-21 -4 -74 -24 -118 -46 -45 -21 -87 -39 -95 -39 -14 0 -43 -13 -135 -57 -16
-8 -63 -26 -105 -40 -41 -14 -82 -31 -90 -38 -8 -7 -24 -15 -35 -18 -90 -25
-242 -92 -269 -118 -6 -5 -19 -9 -31 -9 -11 0 -38 -9 -60 -20 -22 -11 -44 -20
-51 -20 -6 0 -17 -7 -24 -15 -7 -8 -21 -15 -31 -15 -16 0 -75 -23 -131 -51
-10 -5 -26 -9 -37 -9 -11 0 -21 -4 -23 -8 -3 -8 -91 -48 -170 -77 -27 -10 -48
-21 -48 -25 0 -4 -16 -11 -36 -15 -20 -3 -44 -10 -53 -15 -33 -19 -132 -60
-158 -66 -15 -4 -65 -27 -111 -51 -45 -24 -88 -43 -95 -43 -7 0 -50 -16 -96
-35 -45 -19 -87 -35 -92 -35 -5 0 -41 -18 -80 -40 -39 -22 -83 -43 -98 -47
-14 -3 -42 -14 -61 -25 -44 -23 -61 -23 -93 2 -14 11 -32 20 -41 20 -9 0 -16
5 -16 10 0 6 -8 10 -19 10 -10 0 -29 8 -42 18 -13 10 -46 27 -74 37 -27 10
-70 29 -94 42 -24 13 -51 23 -60 23 -9 0 -25 7 -35 15 -11 8 -26 15 -33 15 -8
0 -43 14 -78 30 -35 17 -67 30 -71 30 -4 0 -21 11 -39 24 -17 13 -51 30 -76
36 -24 7 -47 16 -50 22 -3 5 -12 11 -20 12 -22 5 -48 16 -135 57 -44 22 -85
39 -90 39 -6 0 -15 5 -21 11 -7 7 -38 20 -70 31 -32 11 -65 26 -73 33 -8 7
-58 29 -110 50 -52 20 -105 43 -117 51 -12 8 -32 14 -43 14 -11 0 -23 7 -26
15 -4 8 -14 15 -24 15 -11 0 -22 5 -25 10 -3 6 -19 10 -35 10 -16 0 -33 6 -37
13 -8 14 -176 97 -196 97 -7 0 -25 8 -42 18 -16 10 -50 26 -75 36 -66 26 -103
42 -225 101 -60 29 -121 56 -135 60 -14 4 -31 12 -38 18 -9 7 -17 5 -27 -9
-14 -18 -14 -18 -15 3 0 16 -12 27 -46 43 -26 11 -50 20 -55 20 -4 0 -36 16
-70 36 -34 20 -79 41 -100 45 -21 5 -54 20 -74 33 -20 14 -52 30 -72 37 -20 6
-62 25 -94 40 -32 16 -62 29 -68 29 -5 0 -27 10 -47 22 -26 15 -39 18 -42 10
-6 -18 -23 -14 -20 5 2 12 -8 20 -33 27 -20 6 -42 16 -50 23 -8 6 -48 25 -89
41 -41 17 -110 49 -154 71 -43 23 -84 41 -90 41 -6 1 -29 9 -51 20 -73 35
-104 19 -93 -50 3 -24 10 -29 73 -56 70 -29 229 -107 245 -119 8 -7 31 -15 50
-19 20 -3 80 -29 135 -56 54 -27 115 -55 134 -61 20 -7 52 -22 71 -34 19 -12
64 -32 100 -45 36 -12 76 -30 90 -39 14 -10 45 -25 70 -35 25 -10 59 -25 77
-32 17 -8 38 -14 46 -14 8 0 20 -7 27 -15 7 -8 16 -12 21 -9 5 3 9 1 9 -4 0
-15 103 -62 164 -74 33 -7 56 -17 56 -25 0 -16 41 -27 80 -21 16 2 27 1 24 -4
-7 -11 28 -57 44 -58 7 0 31 -8 55 -19 82 -36 98 -41 128 -41 21 0 32 -6 36
-17 4 -18 22 -28 168 -93 65 -30 122 -56 250 -115 107 -50 269 -118 301 -127
19 -5 39 -18 45 -29 10 -20 9 -21 -21 -14 -18 4 -56 18 -84 31 -28 13 -59 24
-68 24 -10 0 -18 5 -18 10 0 6 -7 10 -16 10 -8 0 -36 9 -62 20 -26 11 -57 21
-69 23 -11 2 -27 8 -35 13 -23 19 -76 36 -87 29 -6 -3 -11 -1 -11 5 0 6 -10
14 -22 19 -83 32 -117 45 -143 56 -16 7 -48 18 -70 25 -22 6 -58 20 -80 30
-22 9 -51 21 -65 25 -14 4 -29 11 -35 15 -5 4 -26 11 -45 15 -19 4 -61 20 -92
36 -31 16 -75 32 -98 35 -23 4 -47 12 -54 19 -7 7 -28 16 -47 20 -19 4 -50 15
-69 25 -19 10 -44 21 -55 23 -50 12 -227 81 -300 117 -44 21 -91 41 -105 43
-27 5 -76 22 -125 43 -84 36 -189 76 -270 105 -49 17 -103 37 -120 45 -16 7
-47 20 -68 29 -21 9 -61 23 -89 32 -28 8 -61 21 -72 28 -12 8 -41 17 -66 21
-25 4 -68 20 -96 36 -29 15 -62 28 -74 28 -29 0 -49 -27 -50 -65 0 -29 4 -32
93 -67 50 -20 113 -39 138 -42 27 -4 54 -15 64 -26 22 -25 32 -25 38 -2 4 13
5 12 6 -5 1 -16 13 -25 49 -38 26 -10 56 -21 67 -25 11 -4 47 -18 80 -30 33
-12 69 -26 80 -31 11 -4 40 -14 65 -20 25 -7 50 -15 55 -19 6 -3 29 -12 53
-20 23 -7 42 -16 42 -20 0 -4 33 -18 73 -30 39 -13 93 -34 119 -47 26 -12 56
-23 66 -23 11 0 25 -6 31 -14 6 -7 37 -21 69 -30 31 -9 80 -28 108 -42 28 -13
55 -24 61 -24 5 0 28 -9 51 -20 22 -11 48 -20 57 -20 8 0 15 -4 15 -10 0 -5
23 -10 50 -10 37 0 50 -4 50 -15 0 -8 18 -19 43 -26 23 -7 51 -19 62 -26 11
-7 27 -13 37 -13 10 0 35 -9 55 -20 21 -11 53 -23 73 -27 19 -3 55 -17 79 -31
24 -13 96 -42 159 -63 63 -22 129 -46 146 -53 17 -8 54 -19 81 -26 28 -6 57
-17 65 -25 14 -12 57 -33 133 -64 15 -6 39 -11 52 -11 14 0 25 -5 25 -10 0 -6
12 -15 28 -20 15 -6 36 -15 47 -20 28 -13 141 -56 195 -73 25 -9 95 -36 155
-61 61 -25 118 -46 128 -46 9 0 17 -4 17 -8 0 -5 19 -15 43 -23 23 -7 53 -19
67 -26 14 -7 31 -13 38 -13 7 0 24 -7 37 -16 13 -8 45 -22 72 -29 60 -17 208
-75 248 -97 27 -15 28 -17 8 -18 -12 0 -24 4 -27 9 -3 5 -23 12 -43 16 -21 4
-42 10 -48 14 -5 4 -37 15 -70 25 -33 9 -83 26 -110 36 -28 11 -57 20 -65 20
-8 0 -33 9 -55 19 -50 24 -105 41 -131 41 -11 0 -24 4 -29 9 -13 12 -143 58
-225 80 -67 18 -129 43 -143 57 -5 5 -14 9 -20 9 -23 1 -102 26 -144 46 -24
10 -49 19 -56 19 -7 0 -17 4 -22 8 -6 5 -41 17 -79 27 -38 10 -81 24 -96 31
-14 8 -44 16 -66 19 -21 3 -63 17 -93 31 -30 14 -75 32 -100 40 -25 8 -55 19
-66 23 -89 37 -158 61 -173 61 -10 0 -26 6 -37 13 -11 7 -40 19 -65 25 -40 11
-259 79 -335 104 -16 5 -52 19 -80 30 -27 11 -102 37 -165 59 -63 21 -153 52
-200 69 -47 16 -95 30 -107 30 -12 0 -25 4 -28 10 -3 5 -25 14 -48 20 -23 6
-55 17 -72 25 -50 23 -198 76 -240 87 -22 5 -49 13 -60 17 -50 20 -124 45
-160 55 -22 6 -46 16 -53 23 -7 7 -26 13 -42 13 -15 0 -52 11 -81 24 -30 14
-70 27 -89 31 -35 6 -70 47 -70 81 0 7 -11 37 -24 66 -13 29 -32 73 -41 98
-10 25 -21 54 -25 65 -13 30 -37 122 -50 190 -15 70 -47 183 -61 207 -5 10 -9
33 -9 52 0 18 -6 39 -14 45 -9 8 -16 50 -22 129 -4 64 -9 122 -10 127 -1 6 -2
27 -3 47 -1 31 -5 39 -26 44 -29 7 -32 22 -8 39 14 11 17 43 19 273 2 161 7
268 13 281 6 11 11 42 11 69 0 73 28 319 43 374 7 27 18 53 25 60 7 7 12 29
12 50 0 20 4 47 9 60 5 13 15 50 22 83 7 33 16 65 20 70 4 6 17 42 29 80 13
39 27 76 32 82 6 7 8 19 5 27 -3 8 3 31 13 51 24 48 17 65 -29 66 -20 0 -157
2 -306 5 -148 2 -286 7 -305 10 -29 5 -132 9 -380 16 -14 0 -34 0 -45 -1 -44
-2 -611 9 -630 12 -11 2 -30 2 -43 0z m18 -350 c0 -13 -3 -13 -15 -3 -8 7 -15
16 -15 21 0 5 7 6 15 3 8 -4 15 -13 15 -21z m634 -1555 c6 -4 7 -10 3 -14 -11
-12 -36 16 -30 34 6 13 7 13 11 1 3 -7 10 -17 16 -21z m1318 -1117 c21 -5 44
-14 52 -20 16 -14 109 -40 169 -48 22 -3 37 -11 37 -19 0 -8 10 -14 24 -14 13
0 37 -7 52 -15 16 -8 40 -15 54 -15 14 0 39 -7 55 -16 33 -17 94 -41 140 -54
110 -31 175 -52 213 -70 41 -20 46 -20 69 -5 24 16 25 16 18 -4 -5 -17 0 -22
37 -31 24 -6 57 -17 73 -24 17 -7 46 -19 65 -26 19 -6 44 -16 55 -21 11 -4 39
-13 61 -19 23 -5 47 -16 53 -24 6 -7 35 -17 63 -20 29 -4 57 -11 63 -16 6 -5
37 -16 69 -24 32 -9 82 -27 111 -41 30 -14 59 -25 65 -25 7 0 26 -6 43 -14 18
-8 48 -19 67 -25 19 -5 80 -26 135 -46 55 -20 116 -40 135 -46 19 -5 44 -14
55 -19 11 -5 37 -14 58 -21 20 -7 37 -17 37 -21 0 -5 13 -7 28 -6 16 1 47 -8
70 -20 24 -12 49 -22 57 -22 22 0 148 -42 170 -57 11 -7 28 -13 39 -13 11 0
27 -6 35 -14 9 -8 36 -17 60 -20 24 -3 49 -9 55 -14 6 -4 38 -16 71 -27 33
-11 63 -24 67 -29 4 -6 10 -7 14 -3 4 3 19 0 33 -7 14 -8 54 -22 89 -32 34 -9
62 -20 62 -23 0 -4 30 -15 68 -25 37 -10 91 -30 121 -43 30 -14 72 -28 93 -31
21 -2 41 -9 44 -13 3 -5 13 -9 22 -9 9 0 35 -9 57 -19 48 -24 73 -33 102 -37
153 -20 -425 -25 -1072 -8 -289 7 -322 7 -375 -1 -67 -10 -75 -10 -205 13 -66
11 -156 24 -200 27 -44 4 -88 11 -97 16 -9 5 -36 11 -60 14 -24 3 -56 8 -73
11 -35 6 -197 68 -237 89 -14 8 -35 15 -46 15 -11 0 -25 7 -32 15 -7 8 -30 18
-51 21 -22 4 -39 10 -39 14 0 5 -21 16 -47 26 -27 10 -54 24 -61 31 -8 7 -32
22 -55 33 -23 11 -69 36 -102 55 -33 19 -71 40 -85 47 -14 7 -36 23 -50 35
-14 13 -28 23 -31 23 -3 0 -18 11 -33 25 -15 14 -34 25 -42 25 -19 0 -234 181
-234 198 0 6 -6 12 -14 12 -12 0 -146 136 -146 148 0 3 -11 20 -25 38 -14 18
-25 36 -25 40 0 4 -9 17 -19 28 -11 12 -38 59 -61 106 -22 47 -45 93 -50 102
-15 27 -12 31 18 24 15 -4 44 -11 64 -15z m7631 -163 c-7 -36 -50 -108 -64
-108 -5 0 -9 -9 -9 -20 0 -34 -22 -70 -43 -70 -11 0 -17 -3 -14 -6 8 -8 -24
-64 -35 -64 -4 0 -8 -7 -8 -15 0 -8 -7 -15 -15 -15 -8 0 -15 -5 -15 -10 0 -26
-139 -156 -177 -166 -13 -4 -23 -10 -23 -15 0 -15 -44 -53 -84 -74 -21 -11
-40 -25 -43 -32 -3 -7 -28 -27 -56 -45 -29 -18 -53 -36 -55 -40 -2 -5 -12 -8
-21 -8 -10 0 -30 -9 -44 -20 -14 -11 -30 -20 -35 -20 -5 0 -12 -6 -15 -13 -2
-7 -31 -26 -63 -41 -33 -16 -76 -40 -96 -52 -21 -13 -47 -24 -58 -24 -11 0
-20 -4 -20 -10 0 -5 -17 -12 -37 -16 -21 -4 -45 -12 -53 -18 -21 -17 -57 -32
-120 -52 -30 -9 -59 -20 -65 -24 -20 -14 -106 -42 -112 -36 -3 3 -18 -1 -34
-10 -16 -8 -29 -12 -29 -8 0 4 -6 2 -12 -4 -11 -8 -64 -18 -148 -28 -14 -1
-77 -9 -140 -18 -164 -21 -537 -21 -1460 -1 -74 2 -191 4 -260 4 -139 2 -142
10 -16 43 39 10 75 23 80 28 6 6 19 10 30 10 11 0 33 4 50 10 155 49 194 62
211 70 11 5 54 18 95 30 98 28 163 51 174 61 6 5 19 9 30 9 23 0 235 62 316
92 30 11 84 28 120 38 66 18 123 37 150 50 9 4 31 11 50 14 43 9 129 35 152
47 10 5 24 9 31 9 8 0 28 7 45 16 17 8 44 17 59 18 15 2 28 4 28 5 0 5 181 64
230 75 102 23 144 36 150 46 3 6 17 10 30 10 13 0 34 4 47 9 13 5 43 15 68 22
25 7 49 16 55 21 5 4 19 8 32 8 12 0 32 4 45 9 13 5 50 17 83 26 33 9 68 21
77 26 10 5 27 9 38 9 11 0 20 4 20 9 0 5 20 12 44 15 52 8 138 37 158 54 8 6
23 11 33 11 23 0 87 14 130 30 17 5 64 20 105 31 41 12 88 28 103 36 16 8 42
14 58 14 16 0 29 4 29 9 0 5 21 12 47 16 26 4 60 13 74 21 14 7 39 16 55 20
16 3 56 12 89 19 33 7 61 13 62 14 1 1 0 -14 -4 -31z m-4848 -468 c22 -11 48
-19 58 -20 9 0 17 -4 17 -9 0 -6 -12 -6 -31 1 -41 14 -107 47 -94 47 6 0 28
-8 50 -19z"/>
<path d="M4283 1380 c-34 -3 -66 -9 -71 -15 -12 -13 -24 -736 -13 -754 6 -9 5
-25 -1 -40 -11 -31 -23 -271 -14 -306 7 -27 34 -33 54 -13 9 9 18 9 37 0 37
-17 59 -15 79 7 16 17 18 55 22 368 4 393 12 571 24 578 11 7 324 6 685 0 251
-4 527 -7 553 -6 6 1 12 8 12 17 0 13 3 14 15 4 8 -7 12 -16 10 -21 -6 -8 431
-6 439 2 2 2 7 35 11 72 6 64 5 69 -14 74 -12 3 -21 10 -21 15 0 13 -415 8
-504 -5 -53 -9 -71 -8 -74 1 -5 16 -82 16 -82 0 0 -9 -2 -10 -8 -2 -6 10 -358
29 -457 26 -11 -1 -99 -1 -195 -1 -276 0 -292 0 -342 -7 -25 -3 -55 -2 -65 3
-10 5 -46 6 -80 3z"/>
<path d="M6366 1335 c-12 -18 -16 -46 -15 -104 1 -43 -2 -84 -6 -90 -5 -9 -7
-60 -4 -133 1 -7 -2 -107 -5 -223 -10 -386 -11 -533 -3 -542 10 -9 201 -15
377 -12 146 2 144 2 520 -4 328 -5 371 -1 386 38 3 8 10 15 14 15 17 0 82 70
77 83 -4 11 -98 14 -534 14 -504 0 -647 5 -658 23 -3 4 -5 23 -6 41 -2 44 12
733 15 736 3 3 151 12 211 13 38 1 542 -9 660 -13 11 0 65 1 120 2 55 1 198 2
317 1 246 -1 240 1 232 -80 -2 -24 -5 -45 -7 -46 -1 -2 -76 -6 -166 -9 -90 -3
-172 -10 -182 -16 -11 -5 -25 -24 -32 -41 l-12 -30 -44 36 c-27 23 -53 36 -71
36 -16 0 -31 4 -34 8 -7 12 -813 16 -820 4 -5 -8 -13 -177 -20 -389 l-3 -93
34 -11 c18 -6 37 -7 43 -4 6 4 75 5 153 4 224 -5 368 -2 377 7 12 12 17 150 7
160 -5 5 -97 11 -205 15 -108 4 -198 7 -198 8 -1 0 -4 16 -7 34 -8 49 2 85 27
94 11 4 102 8 201 10 99 1 189 3 200 3 11 1 49 -2 85 -5 54 -5 70 -11 95 -36
l29 -29 -2 -125 c-3 -145 -6 -141 106 -144 75 -2 77 0 87 140 9 111 24 155 60
169 25 10 152 16 247 12 l48 -2 -6 -117 c-2 -65 -7 -202 -10 -305 l-5 -188 26
-10 c34 -13 145 -5 161 12 14 14 21 167 30 583 2 132 7 297 10 366 5 104 3
127 -9 138 -23 19 -1616 28 -1628 9 -6 -8 -12 -9 -16 -3 -5 6 -57 12 -119 13
-109 2 -112 2 -128 -23z"/>
<path d="M8451 1336 c-16 -20 -24 -143 -10 -152 7 -4 184 -9 393 -11 210 -2
485 -5 611 -7 127 -3 249 -5 273 -5 39 -1 42 -3 42 -28 0 -58 36 -55 -648 -54
-460 1 -638 -2 -656 -10 -24 -11 -44 -45 -33 -56 3 -3 2 -15 -3 -28 -8 -22
-26 -356 -32 -600 l-3 -120 75 -7 c71 -6 652 -12 1035 -10 99 0 218 -1 265 -4
47 -2 97 1 111 7 25 10 26 13 32 131 11 194 9 322 -6 342 -11 16 -54 17 -543
22 -349 3 -539 1 -557 -5 -27 -10 -27 -12 -27 -100 0 -87 0 -89 28 -99 28 -11
365 -12 376 -1 3 3 36 2 73 -3 38 -5 82 -9 98 -9 17 0 84 0 150 0 66 0 129 -2
141 -5 24 -6 37 -46 27 -83 -6 -25 30 -23 -414 -21 -200 1 -339 -2 -343 -8 -3
-5 -17 -7 -31 -4 -19 3 -25 0 -25 -13 0 -17 -1 -17 -21 1 -16 14 -35 19 -79
18 -31 -1 -69 -4 -83 -8 -24 -6 -26 -3 -38 51 -10 51 -8 418 3 427 1 2 36 8
77 14 50 7 81 7 100 0 15 -5 51 -7 86 -3 58 7 150 7 723 1 230 -3 266 -1 283
13 17 14 21 33 26 141 10 183 7 271 -8 280 -10 7 -154 12 -294 12 -11 0 -148
0 -305 0 -157 -1 -415 0 -573 1 -193 2 -291 0 -296 -7z"/>
<path d="M4626 1057 c-16 -11 -19 -29 -21 -105 -1 -50 1 -95 4 -101 11 -18
238 -91 280 -91 13 0 37 -6 54 -14 18 -7 66 -25 107 -38 217 -72 302 -111 326
-152 40 -65 36 -133 -8 -157 -20 -12 -287 -22 -438 -18 -19 1 -100 2 -180 3
l-145 1 0 -75 c0 -65 2 -75 18 -74 9 1 17 -2 17 -6 0 -10 252 -6 268 4 7 4 12
2 12 -5 0 -7 11 -10 33 -6 17 2 93 0 167 -5 103 -7 140 -6 158 3 17 10 33 10
62 2 54 -14 136 0 167 29 23 22 63 99 63 122 0 6 14 27 30 46 16 19 30 39 30
43 0 5 16 25 35 45 34 37 35 37 104 34 75 -3 138 -23 148 -48 3 -8 6 -65 7
-127 l1 -112 77 -3 c114 -4 107 -31 110 419 l3 374 -27 0 c-14 0 -29 2 -31 5
-3 3 -101 4 -219 3 -117 -1 -229 -2 -248 -1 -42 2 -127 1 -155 -1 -11 -1 -135
1 -275 4 -267 6 -297 6 -395 6 -33 -1 -73 2 -90 5 -18 3 -38 -1 -49 -9z m1291
-160 c9 -6 12 -34 10 -95 l-2 -87 -33 -17 c-27 -13 -41 -14 -70 -6 -20 6 -93
11 -162 12 -112 2 -185 13 -230 36 -9 4 -35 11 -58 15 -23 4 -44 11 -47 15 -3
5 -28 16 -56 25 -27 9 -59 26 -70 38 -21 23 -25 63 -6 70 22 8 712 2 724 -6z
m-1103 -562 c-4 -8 -12 -15 -20 -15 -17 0 -18 17 -1 23 22 9 27 7 21 -8z"/>
</g>
</svg>
